<svg width="166" height="69" viewBox="0 0 166 69" fill="none" xmlns="http://www.w3.org/2000/svg">
<path d="M57.8389 31.6453V3.96011H54.8238C54.126 3.96011 53.6257 4.42065 53.6257 5.15752V24.5398L41.9209 4.6575C41.6708 4.19696 41.2231 3.96011 40.6833 3.96011H39.156H37.1284V19.7502H40.1435C40.8413 19.7502 41.3416 19.2896 41.3416 18.5528V11.0788L53.0463 30.9611C53.2965 31.369 53.7442 31.619 54.2445 31.619H57.8389V31.6585V31.6453Z" fill="#181E34"/>
<path d="M64.0788 31.6466H65.8957C66.5935 31.6466 67.0939 31.186 67.0939 30.4491V5.23768C67.0939 4.86925 67.0149 4.57976 66.7647 4.36923C66.554 4.15869 66.2644 4.04027 65.8957 4.04027H64.0788C63.381 4.04027 62.8807 4.50081 62.8807 5.23768V30.4491C62.8807 30.8176 62.9597 31.1071 63.2098 31.3176C63.4205 31.5281 63.7102 31.6466 64.0788 31.6466Z" fill="#181E34"/>
<path d="M102.659 32.1465C105.674 32.1465 108.123 31.1596 109.98 29.1727C111.797 27.1857 112.745 24.4225 112.745 20.8302V11.8694H109.73C109.032 11.8694 108.531 12.3299 108.531 13.0668V20.8302C108.531 23.2645 107.992 25.133 106.873 26.3304C105.793 27.5279 104.397 28.1463 102.62 28.1463C100.842 28.1463 99.4336 27.5279 98.3672 26.3304C97.2875 25.133 96.7082 23.2777 96.7082 20.8302V5.17177C96.7082 4.42174 96.2474 3.97436 95.5101 3.97436H92.4951V20.8302C92.4951 24.383 93.443 27.1989 95.26 29.1727C97.1164 31.1596 99.5653 32.1465 102.58 32.1465" fill="#181E34"/>
<path d="M13.1011 49.5811C11.7845 49.0021 10.4152 48.4231 9.08541 47.9231C7.84779 47.4626 6.76816 46.8441 5.89919 46.1468C5.10922 45.4888 4.74057 44.6993 4.74057 43.7519C4.74057 42.8045 5.10922 41.8966 5.85969 41.2781C6.64967 40.6597 7.67663 40.3307 8.91425 40.3307C10.7312 40.3307 12.5086 41.1992 14.1676 42.8045C14.6284 43.3045 15.3262 43.3045 15.866 42.8045L16.814 41.8176C17.2748 41.2781 17.2748 40.6597 16.8535 40.2123C15.866 39.0149 14.6679 38.107 13.2986 37.4491C11.8898 36.7911 10.4415 36.4622 8.91425 36.4622C6.597 36.4622 4.60891 37.1596 3.04213 38.528C1.47535 39.936 0.645882 41.7124 0.645882 43.8177C0.645882 45.9231 1.1462 47.002 2.17316 48.1995C3.16062 49.3574 4.35875 50.2258 5.76753 50.8443C7.04465 51.4233 8.41393 51.9627 9.73055 52.5022C10.9682 53.0023 12.0478 53.6207 12.8773 54.3576C13.6672 55.055 14.0359 55.8445 14.0359 56.8314C14.0359 57.8182 13.5751 58.9367 12.6666 59.7262C11.7186 60.5157 10.481 60.9236 8.94058 60.9236C7.40014 60.9236 5.05656 59.9762 3.14746 58.0682C2.52865 57.4893 1.90984 57.6603 1.48852 57.9893L0.448387 59.0288C-0.0519281 59.4367 -0.130923 60.0157 0.198231 60.5552C0.988203 61.871 2.22582 62.9105 3.7926 63.7C5.35938 64.4895 7.09732 64.858 9.00641 64.858C10.9023 64.858 13.7199 64.1079 15.4973 62.5816C17.3143 61.0552 18.2227 59.1472 18.2227 56.9235C18.2227 54.6997 17.6829 53.5812 16.6955 52.3838C15.708 51.1864 14.5099 50.2785 13.0616 49.66" fill="#181E34"/>
<path d="M55.0389 53.8452C56.8163 53.3057 58.2251 52.3583 59.2126 51.0293C60.4107 49.5029 61.0295 47.6344 61.0295 45.4896C61.0295 43.3448 60.2 40.7789 58.5016 39.1209C56.8426 37.463 54.4859 36.6866 51.5498 36.6866H43.2815V64.3719H46.2965C46.9943 64.3719 47.4947 63.9113 47.4947 63.1745V54.2925H50.7204L57.0006 63.714C57.2508 64.1219 57.6984 64.3719 58.1988 64.3719H60.1869C60.6872 64.3719 61.0558 64.2008 61.227 63.8718C61.3982 63.5429 61.3455 63.1745 61.1085 62.7139L55.0257 53.7925V53.832L55.0389 53.8452ZM47.4683 50.3319V40.6605H51.3918C53.0903 40.6605 54.4464 41.0684 55.447 41.8184C56.395 42.5684 56.8953 43.8053 56.8953 45.4501C56.8953 47.0949 56.395 48.345 55.447 49.0818C54.4596 49.8713 53.0903 50.2792 51.3918 50.2792H47.4683V50.3187V50.3319Z" fill="#181E34"/>
<path d="M78.5496 36.2772C74.6656 36.2772 71.2687 37.6851 68.5433 40.4089C65.8179 43.1327 64.4091 46.5276 64.4091 50.4882C64.4091 54.4489 65.7784 57.8043 68.5433 60.5281C71.2687 63.2519 74.6261 64.6598 78.5496 64.6598C82.4732 64.6598 85.791 63.2519 88.5164 60.5281C91.2418 57.7648 92.6506 54.4094 92.6506 50.4882C92.6506 46.567 91.2418 43.1722 88.5164 40.4089C85.791 37.6457 82.4337 36.2377 78.5496 36.2377M85.5409 57.6859C83.6449 59.6333 81.2882 60.5807 78.5101 60.5807C75.7452 60.5807 73.3885 59.5938 71.4794 57.6859C69.5834 55.7384 68.6223 53.3436 68.6223 50.5014C68.6223 47.646 69.5703 45.2512 71.4794 43.3169C73.3753 41.3695 75.7321 40.4221 78.5496 40.4221C81.3672 40.4221 83.6713 41.409 85.5804 43.3169C87.4763 45.2644 88.4374 47.6592 88.4374 50.5014C88.4374 53.3568 87.4895 55.7516 85.5804 57.6859" fill="#181E34"/>
<path d="M110.27 36.2772C106.386 36.2772 102.989 37.6851 100.263 40.4089C97.5379 43.1327 96.1292 46.5276 96.1292 50.4882C96.1292 54.4489 97.4984 57.8043 100.263 60.5281C102.989 63.2519 106.346 64.6598 110.27 64.6598C114.193 64.6598 117.511 63.2519 120.236 60.5281C122.962 57.7648 124.371 54.4094 124.371 50.4882C124.371 46.567 122.962 43.1722 120.236 40.4089C117.511 37.6457 114.154 36.2377 110.27 36.2377M117.3 57.6859C115.404 59.6333 113.048 60.5807 110.27 60.5807C107.492 60.5807 105.148 59.5938 103.239 57.6859C101.343 55.7384 100.382 53.3436 100.382 50.5014C100.382 47.646 101.33 45.2512 103.239 43.3169C105.135 41.3695 107.492 40.4221 110.309 40.4221C113.127 40.4221 115.431 41.409 117.34 43.3169C119.236 45.2644 120.197 47.6592 120.197 50.5014C120.197 53.3568 119.249 55.7516 117.34 57.6859" fill="#181E34"/>
<path d="M164.803 27.6843H154.797V19.7498H164.145C164.895 19.7498 165.343 19.2892 165.343 18.5523V16.9865C165.343 16.2365 164.882 15.7891 164.145 15.7891H154.797V7.89405H164.764C165.514 7.89405 165.962 7.43351 165.962 6.69664V3.93338H150.584V31.6186H166.001V28.8554C166.001 28.158 165.541 27.6579 164.803 27.6579" fill="#181E34"/>
<path d="M141.405 1.19741V22.6456L133.874 4.78965C133.664 4.25016 133.256 3.96067 132.637 3.96067H130.741C130.161 3.96067 129.701 4.25016 129.503 4.75018L121.972 22.6456V13.1057C121.972 12.7373 121.893 12.4478 121.643 12.2373C121.432 12.0268 121.143 11.9083 120.774 11.9083H117.798V31.6985H121.432C122.262 31.6985 122.551 31.1985 122.67 30.909L131.689 9.46088L140.655 30.8696C140.866 31.3696 141.313 31.6591 141.932 31.6591H145.566V0H142.551C141.853 0 141.353 0.460543 141.353 1.19741" fill="#181E34"/>
<path d="M20.9235 39.4232C20.9235 39.7916 21.0025 40.0811 21.2132 40.2916C21.4238 40.5022 21.7135 40.6206 22.0821 40.6206H27.4539V63.1477C27.4539 63.8978 27.9148 64.3451 28.6521 64.3451H30.469C31.2195 64.3451 31.6671 63.8846 31.6671 63.1477V40.6206H36.9994C37.7499 40.6206 38.1976 40.16 38.1976 39.4232V36.6599H20.9103V39.4232H20.9235Z" fill="#181E34"/>
<path d="M151.91 37.4761L142.944 58.8848L133.925 37.4761C133.806 37.1866 133.517 36.7261 132.687 36.6866H129.053V68.3457H132.068C132.766 68.3457 133.227 67.8852 133.227 67.1483V45.7001L140.758 63.556C140.929 64.0561 141.377 64.385 141.996 64.385H143.892C144.471 64.385 144.932 64.0561 145.129 63.556L152.66 45.7001V55.2926C152.66 56.0426 153.121 56.49 153.859 56.49H156.834V36.6998H153.2C152.581 36.6998 152.121 36.9893 151.923 37.4893" fill="#181E34"/>
<path d="M87.5296 28.8422C87.5296 28.1448 87.0688 27.6448 86.3315 27.6448H76.3252V19.7498H85.6337C86.3842 19.7498 86.8318 19.2892 86.8318 18.5523V16.9865C86.8318 16.2365 86.371 15.7891 85.6337 15.7891H76.3252V7.89405H86.292C87.0425 7.89405 87.4901 7.43351 87.4901 6.69664V3.93338H72.112V31.6186H87.4901V28.8554H87.5296V28.8422Z" fill="#181E34"/>
<path d="M165.304 36.6991H161.828V39.9624C161.828 40.3308 162.157 40.6598 162.526 40.6598H165.291C165.659 40.6598 165.989 40.3308 165.989 39.9624V37.436C165.989 37.0675 165.659 36.7386 165.291 36.7386" fill="#181E34"/>
</svg>
