<svg width="22" height="22" viewBox="0 0 22 22" fill="none" xmlns="http://www.w3.org/2000/svg">
<path d="M9.71155 14.7026C10.0996 14.3097 10.0956 13.6765 9.70264 13.2885C9.30966 12.9004 8.67651 12.9044 8.28845 13.2974L9 14L9.71155 14.7026ZM5.925 17.114L6.63619 17.817L6.63655 17.8166L5.925 17.114ZM5.097 17.78L5.01575 16.7833L5.00983 16.7838L5.097 17.78ZM4.676 17.608L3.91445 18.2561L3.91763 18.2598L4.676 17.608ZM1.032 11.435L2.02145 11.2901L2.0212 11.2885L1.032 11.435ZM1.327 2.638L0.436394 2.18322L0.435929 2.18414L1.327 2.638ZM2.638 1.327L2.18414 0.435928L2.18322 0.436395L2.638 1.327ZM16.362 1.327L16.8168 0.436394L16.8159 0.435929L16.362 1.327ZM17.673 2.638L18.5641 2.18414L18.5636 2.18322L17.673 2.638ZM17 10C17 10.5523 17.4477 11 18 11C18.5523 11 19 10.5523 19 10H18H17ZM18 21L17.4291 21.821C17.7348 22.0336 18.1332 22.0587 18.4632 21.8862C18.7932 21.7138 19 21.3723 19 21H18ZM15.824 19.487L15.2527 20.3077L15.2531 20.308L15.824 19.487ZM15.198 19.092L15.6122 18.1818L15.6053 18.1787L15.198 19.092ZM14.736 18.947L14.9214 17.9643L14.9163 17.9634L14.736 18.947ZM10.092 18.696L10.5459 17.8049L10.5449 17.8044L10.092 18.696ZM9.218 17.822L10.1091 17.3682L10.1091 17.3681L9.218 17.822ZM9.218 11.092L8.32739 10.6372L8.32693 10.6381L9.218 11.092ZM10.092 10.218L9.63814 9.32693L9.63722 9.32739L10.092 10.218ZM19.908 10.218L20.3628 9.32739L20.3619 9.32693L19.908 10.218ZM20.782 11.092L21.6731 10.6381L21.6726 10.6372L20.782 11.092ZM20.848 17.68L21.7719 18.0627L21.7723 18.0618L20.848 17.68ZM19.765 18.762L20.1476 19.6859L20.1477 19.6859L19.765 18.762ZM18 18.914V17.914C17.4477 17.914 17 18.3617 17 18.914H18ZM9 14L8.28845 13.2974L5.21345 16.4114L5.925 17.114L6.63655 17.8166L9.71155 14.7026L9 14ZM5.925 17.114L5.21381 16.411C5.10495 16.5211 5.01727 16.6098 4.94095 16.6845C4.86397 16.7598 4.81102 16.8087 4.77299 16.8409C4.73265 16.8751 4.73129 16.8713 4.75882 16.856C4.78944 16.8391 4.87982 16.7944 5.01575 16.7833L5.097 17.78L5.17825 18.7767C5.60908 18.7416 5.91915 18.491 6.06526 18.3673C6.2377 18.2214 6.43537 18.0202 6.63619 17.817L5.925 17.114ZM5.097 17.78L5.00983 16.7838C5.17421 16.7694 5.33074 16.8356 5.43437 16.9562L4.676 17.608L3.91763 18.2598C4.22926 18.6224 4.69979 18.8186 5.18417 18.7762L5.097 17.78ZM4.676 17.608L5.43754 16.9599C5.52483 17.0624 5.55709 17.1566 5.56675 17.1897C5.57541 17.2194 5.57178 17.2208 5.56714 17.168C5.56275 17.1183 5.55948 17.0462 5.55775 16.9384C5.55603 16.8316 5.556 16.7069 5.556 16.552H4.556H3.556C3.556 16.8373 3.55506 17.1191 3.57486 17.3437C3.59173 17.535 3.63583 17.9287 3.91446 18.2561L4.676 17.608ZM4.556 16.552H5.556V14.992H4.556H3.556V16.552H4.556ZM4.556 14.992H5.556C5.556 13.8135 4.59738 13.1095 3.71102 12.9787L3.565 13.968L3.41898 14.9573C3.49963 14.9692 3.54646 15.0016 3.56161 15.0165C3.56767 15.0225 3.56523 15.0221 3.56139 15.0133C3.55956 15.0091 3.55803 15.0044 3.55704 14.9997C3.55657 14.9974 3.5563 14.9956 3.55615 14.9941C3.556 14.9927 3.556 14.9919 3.556 14.992H4.556ZM3.565 13.968L3.70991 12.9786C2.83608 12.8506 2.14942 12.1639 2.02145 11.2901L1.032 11.435L0.0425548 11.5799C0.29858 13.3281 1.67192 14.7014 3.42009 14.9574L3.565 13.968ZM1.032 11.435L2.0212 11.2885C2.00272 11.1637 2 10.9968 2 10.444H1H0C0 10.9252 -0.00272405 11.2743 0.0427966 11.5815L1.032 11.435ZM1 10.444H2V5.8H1H0V10.444H1ZM1 5.8H2C2 4.9435 2.00078 4.36127 2.03755 3.91119C2.07337 3.47281 2.1383 3.24848 2.21807 3.09186L1.327 2.638L0.435929 2.18414C0.1887 2.66952 0.0901272 3.18619 0.0441965 3.74831C-0.000777721 4.29873 0 4.9765 0 5.8H1ZM1.327 2.638L2.21761 3.09278C2.40984 2.71632 2.71632 2.40984 3.09278 2.21761L2.638 1.327L2.18322 0.436395C1.43168 0.82016 0.82016 1.43168 0.436395 2.18322L1.327 2.638ZM2.638 1.327L3.09186 2.21807C3.24848 2.1383 3.47281 2.07337 3.91119 2.03755C4.36127 2.00078 4.9435 2 5.8 2V1V0C4.9765 0 4.29873 -0.000777721 3.74831 0.0441965C3.18619 0.0901272 2.66952 0.1887 2.18414 0.435929L2.638 1.327ZM5.8 1V2H13.2V1V0H5.8V1ZM13.2 1V2C14.0565 2 14.6387 2.00078 15.0888 2.03755C15.5272 2.07337 15.7515 2.1383 15.9081 2.21807L16.362 1.327L16.8159 0.435929C16.3305 0.1887 15.8138 0.0901272 15.2517 0.0441965C14.7013 -0.000777721 14.0235 0 13.2 0V1ZM16.362 1.327L15.9072 2.21761C16.2837 2.40984 16.5902 2.71632 16.7824 3.09278L17.673 2.638L18.5636 2.18322C18.1798 1.43168 17.5683 0.82016 16.8168 0.436395L16.362 1.327ZM17.673 2.638L16.7819 3.09186C16.8617 3.24848 16.9266 3.47281 16.9624 3.91119C16.9992 4.36127 17 4.9435 17 5.8H18H19C19 4.9765 19.0008 4.29873 18.9558 3.74831C18.9099 3.18619 18.8113 2.66952 18.5641 2.18414L17.673 2.638ZM18 5.8H17V10H18H19V5.8H18ZM18 21L18.5709 20.179L16.3949 18.666L15.824 19.487L15.2531 20.308L17.4291 21.821L18 21ZM15.824 19.487L16.3953 18.6663C16.1166 18.4723 15.8803 18.3038 15.6122 18.1818L15.198 19.092L14.7838 20.0022C14.8497 20.0322 14.9194 20.0757 15.2527 20.3077L15.824 19.487ZM15.198 19.092L15.6053 18.1787C15.3883 18.0819 15.159 18.0092 14.9214 17.9643L14.736 18.947L14.5506 19.9297C14.631 19.9448 14.7117 19.9701 14.7907 20.0053L15.198 19.092ZM14.736 18.947L14.9163 17.9634C14.6264 17.9102 14.3346 17.914 13.997 17.914V18.914V19.914C14.4054 19.914 14.4857 19.9178 14.5557 19.9306L14.736 18.947ZM13.997 18.914V17.914H12.2V18.914V19.914H13.997V18.914ZM12.2 18.914V17.914C11.6235 17.914 11.2513 17.9132 10.9679 17.8901C10.6963 17.8679 10.5955 17.8302 10.5459 17.8049L10.092 18.696L9.63814 19.5871C10.0165 19.7798 10.4097 19.8511 10.8051 19.8834C11.1887 19.9148 11.6565 19.914 12.2 19.914V18.914ZM10.092 18.696L10.5449 17.8044C10.3583 17.7096 10.2054 17.5572 10.1091 17.3682L9.218 17.822L8.32691 18.2758C8.61463 18.8408 9.07374 19.3004 9.6391 19.5876L10.092 18.696ZM9.218 17.822L10.1091 17.3681C10.0838 17.3185 10.0461 17.2177 10.0239 16.9461C10.0008 16.6627 10 16.2905 10 15.714H9H8C8 16.2575 7.99922 16.7253 8.03057 17.1089C8.06288 17.5043 8.1342 17.8975 8.32693 18.2759L9.218 17.822ZM9 15.714H10V13.2H9H8V15.714H9ZM9 13.2H10C10 12.6235 10.0008 12.2513 10.0239 11.9679C10.0461 11.6963 10.0838 11.5955 10.1091 11.5459L9.218 11.092L8.32693 10.6381C8.1342 11.0165 8.06288 11.4097 8.03057 11.8051C7.99922 12.1887 8 12.6565 8 13.2H9ZM9.218 11.092L10.1086 11.5468C10.2048 11.3583 10.3583 11.2048 10.5468 11.1086L10.092 10.218L9.63722 9.32739C9.07368 9.61516 8.61516 10.0737 8.32739 10.6372L9.218 11.092ZM10.092 10.218L10.5459 11.1091C10.5955 11.0838 10.6963 11.0461 10.9679 11.0239C11.2513 11.0008 11.6235 11 12.2 11V10V9C11.6565 9 11.1887 8.99922 10.8051 9.03057C10.4097 9.06288 10.0165 9.1342 9.63814 9.32693L10.092 10.218ZM12.2 10V11H17.8V10V9H12.2V10ZM17.8 10V11C18.3765 11 18.7487 11.0008 19.0321 11.0239C19.3037 11.0461 19.4045 11.0838 19.4541 11.1091L19.908 10.218L20.3619 9.32693C19.9835 9.1342 19.5903 9.06288 19.1949 9.03057C18.8113 8.99922 18.3435 9 17.8 9V10ZM19.908 10.218L19.4532 11.1086C19.6417 11.2048 19.7952 11.3583 19.8914 11.5468L20.782 11.092L21.6726 10.6372C21.3848 10.0737 20.9263 9.61516 20.3628 9.32739L19.908 10.218ZM20.782 11.092L19.8909 11.5459C19.9162 11.5955 19.9539 11.6963 19.9761 11.9679C19.9992 12.2513 20 12.6235 20 13.2H21H22C22 12.6565 22.0008 12.1887 21.9694 11.8051C21.9371 11.4097 21.8658 11.0165 21.6731 10.6381L20.782 11.092ZM21 13.2H20V15.914H21H22V13.2H21ZM21 15.914H20C20 16.3937 19.9995 16.7034 19.9833 16.9406C19.9678 17.1687 19.9412 17.256 19.9237 17.2982L20.848 17.68L21.7723 18.0618C21.9068 17.736 21.9562 17.4063 21.9787 17.0764C22.0005 16.7556 22 16.3663 22 15.914H21ZM20.848 17.68L19.9241 17.2973C19.823 17.5414 19.6282 17.7363 19.3823 17.8381L19.765 18.762L20.1477 19.6859C20.8818 19.3817 21.467 18.7986 21.7719 18.0627L20.848 17.68ZM19.765 18.762L19.3824 17.8381C19.3411 17.8552 19.2545 17.8818 19.0264 17.8973C18.7894 17.9135 18.4797 17.914 18 17.914V18.914V19.914C18.4523 19.914 18.8416 19.9145 19.1623 19.8927C19.492 19.8702 19.8219 19.8208 20.1476 19.6859L19.765 18.762ZM18 18.914H17V21H18H19V18.914H18Z" fill="#181E34"/>
</svg>
