<?xml version="1.0" encoding="UTF-8"?>
<svg id="Layer_2" xmlns="http://www.w3.org/2000/svg" version="1.1" viewBox="0 0 288 51">
  <!-- Generator: Adobe Illustrator 29.8.2, SVG Export Plug-In . SVG Version: 2.1.1 Build 3)  -->
  <defs>
    <style>
      .st0, .st1 {
        fill: #9746ff;
      }

      .st2 {
        fill: #fff;
      }

      .st1 {
        fill-rule: evenodd;
        stroke: #9746ff;
        stroke-linecap: round;
        stroke-linejoin: round;
        stroke-width: 2px;
      }
    </style>
  </defs>
  <g id="Layer_1-2">
    <path class="st1" d="M24.5,11.2c.9-.3,1.3-.5,1.4-.7.1-.2.1-.4,0-.6-.1-.2-.5-.4-1.4-.7L2.7,1.3c-.7-.2-1-.4-1.3-.3-.2,0-.4.2-.4.4,0,.2,0,.6.3,1.3l7.8,21.8c.3.9.5,1.3.7,1.4.2.1.4.1.6,0,.2-.1.4-.5.7-1.4l3.6-9.2c0-.2.1-.2.1-.3,0,0,.1-.1.2-.2,0,0,.1,0,.3-.1l9.2-3.6h0Z"/>
    <g>
      <rect class="st0" x="24" y="26" width="264" height="25" rx="6" ry="6"/>
      <path class="st2" d="M34.5,43v-10.5h2l3.1,5.8c.2.3.4.7.5,1.1.2.4.3.8.5,1.2h0c0-.6,0-1.2-.1-1.8,0-.6,0-1.2,0-1.8v-4.6h1.8v10.5h-2l-3.1-5.8c-.2-.3-.4-.7-.6-1.1-.2-.4-.3-.8-.5-1.2h0c0,.5.1,1.1.2,1.7,0,.6,0,1.2,0,1.8v4.6h-1.8ZM44.8,43v-7.9h1.8v7.9h-1.8ZM45.7,33.8c-.3,0-.6,0-.8-.3-.2-.2-.3-.5-.3-.8s0-.6.3-.8c.2-.2.5-.3.8-.3s.6,0,.8.3c.2.2.3.4.3.8s0,.6-.3.8-.5.3-.8.3ZM52.4,43.2c-.7,0-1.4-.2-2-.5-.6-.3-1-.8-1.4-1.4-.3-.6-.5-1.4-.5-2.2s.2-1.6.5-2.2c.3-.6.8-1.1,1.4-1.4.5-.3,1.1-.5,1.8-.5s1.3.2,1.8.5c.5.3.8.8,1.1,1.3.2.5.4,1.2.4,1.9s0,.3,0,.5c0,.2,0,.3,0,.5h-5.4v-1.4h3.9c0-.6-.1-1-.4-1.3-.3-.3-.7-.5-1.2-.5s-.6,0-.9.2c-.3.2-.5.4-.7.8-.2.4-.3.9-.3,1.6s.1,1.1.3,1.5c.2.4.5.7.8.9.3.2.7.3,1.1.3s.7,0,1-.1c.3,0,.6-.2.9-.4l.6,1.2c-.4.3-.8.5-1.2.6-.5.2-.9.2-1.4.2h0ZM59.5,43.2c-.8,0-1.5-.3-1.8-.8s-.6-1.3-.6-2.3v-4.9h1.8v4.7c0,.7,0,1.1.3,1.4s.5.4.9.4.6,0,.9-.3c.3-.2.6-.5.8-.8v-5.4h1.8v7.9h-1.5v-1.2h-.2c-.3.4-.7.7-1.1,1s-.9.4-1.4.4h0ZM67.3,43l-2.1-7.9h1.9l.9,4.1c0,.3.2.7.2,1.1,0,.4.1.8.2,1.2h0c0-.5.1-.9.2-1.2,0-.4.2-.7.2-1.1l1-4.1h1.9l1,4.1c0,.3.2.7.2,1.1,0,.4.2.8.2,1.2h0c0-.5.1-.9.2-1.2,0-.4.1-.7.2-1.1l.9-4.1h1.8l-2,7.9h-2.3l-.8-3.7c0-.3-.2-.7-.2-1.1,0-.4-.1-.8-.2-1.3h0c0,.5-.1,1-.2,1.3,0,.3-.1.7-.2,1.1l-.8,3.7h-2.3ZM81.3,43.2c-.7,0-1.4-.2-2-.5-.6-.3-1.1-.8-1.4-1.4-.3-.6-.5-1.4-.5-2.2s.2-1.6.5-2.2c.3-.6.8-1.1,1.4-1.4.6-.3,1.1-.5,1.8-.5s1.3.2,1.8.5.8.8,1.1,1.3c.2.5.4,1.2.4,1.9s0,.3,0,.5c0,.2,0,.3,0,.5h-5.4v-1.4h3.9c0-.6-.1-1-.4-1.3-.3-.3-.7-.5-1.2-.5s-.6,0-.9.2c-.3.2-.5.4-.7.8-.2.4-.3.9-.3,1.6s.1,1.1.3,1.5c.2.4.5.7.8.9.3.2.7.3,1.1.3s.7,0,1-.1c.3,0,.6-.2.9-.4l.6,1.2c-.4.3-.8.5-1.2.6-.5.2-.9.2-1.4.2h0ZM88.9,43.2c-.7,0-1.4-.1-2.1-.4-.6-.3-1.2-.7-1.7-1.1l1-1.2c.4.4.8.7,1.3.8.5.2,1,.3,1.5.3s1.1-.1,1.4-.4.5-.6.5-1,0-.5-.2-.7c-.1-.2-.3-.3-.6-.5-.2-.1-.5-.3-.8-.4l-1.4-.6c-.3-.2-.7-.3-1-.6-.3-.2-.6-.5-.8-.9-.2-.4-.3-.8-.3-1.3s.2-1,.4-1.5c.3-.5.7-.8,1.2-1.1.5-.3,1.1-.4,1.8-.4s1.2.1,1.8.3c.6.2,1.1.5,1.4.9l-1,1.2c-.3-.3-.7-.5-1.1-.6-.4-.2-.8-.2-1.2-.2s-.9.1-1.2.3c-.3.2-.4.5-.4.9s0,.5.2.7c.2.2.4.3.6.5.3.1.5.2.8.3l1.4.6c.4.2.8.4,1.1.6s.6.5.7.9c.2.3.3.8.3,1.3s-.2,1.1-.4,1.5c-.3.5-.7.8-1.3,1.1-.6.3-1.2.4-2,.4h0ZM96.8,43.2c-.9,0-1.6-.3-1.9-.8-.4-.5-.6-1.2-.6-2.1v-3.7h-1.1v-1.4h1.2c0,0,.2-2.5.2-2.5h1.5v2.5h2v1.5h-2v3.7c0,.5,0,.8.3,1,.2.2.5.3.8.3s.3,0,.4,0,.3,0,.4-.1l.3,1.3c-.2,0-.4.2-.7.2s-.6,0-.9,0h0ZM99.8,43v-7.9h1.5v1.4h.2c.3-.5.6-.9,1-1.2.4-.3.8-.4,1.2-.4s.4,0,.5,0,.3,0,.4.1l-.4,1.6c-.1,0-.2,0-.3,0-.1,0-.2,0-.4,0-.3,0-.6.1-1,.4-.3.2-.6.7-.9,1.2v4.8h-1.8,0ZM108.8,43.2c-.7,0-1.3-.2-1.8-.5-.6-.3-1-.8-1.4-1.4-.3-.6-.5-1.4-.5-2.2s.2-1.6.5-2.2c.3-.6.8-1.1,1.4-1.4.6-.3,1.2-.5,1.8-.5s1.3.2,1.8.5c.6.3,1,.8,1.4,1.4.3.6.5,1.3.5,2.2s-.2,1.6-.5,2.2-.8,1.1-1.4,1.4c-.6.3-1.2.5-1.8.5ZM108.8,41.7c.4,0,.7-.1,1-.3s.5-.5.6-.9.2-.8.2-1.4,0-1-.2-1.4c-.2-.4-.4-.7-.6-.9-.3-.2-.6-.3-1-.3s-.7.1-1,.3c-.3.2-.5.5-.6.9s-.2.8-.2,1.4,0,1,.2,1.4c.2.4.4.7.6.9.3.2.6.3,1,.3ZM117.6,43.2c-.7,0-1.3-.2-1.8-.5-.6-.3-1-.8-1.4-1.4-.3-.6-.5-1.4-.5-2.2s.2-1.6.5-2.2c.3-.6.8-1.1,1.4-1.4.6-.3,1.2-.5,1.8-.5s1.3.2,1.8.5c.6.3,1,.8,1.4,1.4.4.6.5,1.3.5,2.2s-.2,1.6-.5,2.2-.8,1.1-1.4,1.4c-.6.3-1.2.5-1.8.5ZM117.6,41.7c.4,0,.7-.1,1-.3s.5-.5.6-.9.2-.8.2-1.4,0-1-.2-1.4c-.1-.4-.4-.7-.6-.9-.3-.2-.6-.3-1-.3s-.7.1-1,.3c-.3.2-.5.5-.6.9s-.2.8-.2,1.4,0,1,.2,1.4c.2.4.4.7.6.9.3.2.6.3,1,.3ZM123.2,43v-7.9h1.5v1.1h.2c.3-.3.7-.7,1.1-.9.4-.2.8-.4,1.3-.4s1.1.1,1.4.4.6.6.8,1c.4-.4.8-.7,1.2-1,.4-.3.9-.4,1.4-.4.8,0,1.4.3,1.8.8.4.5.6,1.3.6,2.3v4.9h-1.9v-4.7c0-.7-.1-1.1-.3-1.4-.2-.3-.5-.4-.9-.4s-.5,0-.8.2c-.3.2-.6.4-.9.7v5.5h-1.8v-4.7c0-.7-.1-1.1-.3-1.4-.2-.3-.5-.4-.9-.4s-1,.3-1.6,1v5.5h-1.8ZM139.9,43v-11.3h1.8v4.4c.3-.3.6-.6,1-.8.4-.2.9-.4,1.4-.4.8,0,1.5.3,1.8.8.4.5.6,1.3.6,2.3v4.9h-1.8v-4.7c0-.7-.1-1.1-.3-1.4s-.5-.4-.9-.4-.6,0-.9.3c-.3.2-.6.4-.9.7v5.5h-1.9ZM152.2,43.2c-.7,0-1.4-.2-2-.5-.6-.3-1.1-.8-1.4-1.4-.3-.6-.5-1.4-.5-2.2s.2-1.6.5-2.2c.4-.6.8-1.1,1.4-1.4.6-.3,1.1-.5,1.8-.5s1.3.2,1.8.5.8.8,1.1,1.3c.2.5.4,1.2.4,1.9s0,.3,0,.5c0,.2,0,.3,0,.5h-5.4v-1.4h3.9c0-.6-.1-1-.4-1.3-.3-.3-.6-.5-1.2-.5s-.6,0-.9.2c-.3.2-.5.4-.7.8-.2.4-.3.9-.3,1.6s.1,1.1.3,1.5c.2.4.5.7.9.9.4.2.7.3,1.1.3s.7,0,1-.1c.3,0,.6-.2.9-.4l.6,1.2c-.4.3-.8.5-1.2.6-.5.2-.9.2-1.4.2h0ZM158.7,43.2c-.4,0-.8,0-1.1-.3-.3-.2-.4-.4-.6-.8s-.2-.7-.2-1.2v-9.2h1.8v9.3c0,.2,0,.4.1.5s.2.1.3.1h.1s.1,0,.2,0l.2,1.4c-.1,0-.2,0-.4.1-.2,0-.4,0-.6,0h0ZM161.2,46.1v-11h1.5v.8h.2c.3-.3.7-.5,1.1-.7.4-.2.8-.3,1.3-.3.6,0,1.2.2,1.7.5.5.3.8.8,1.1,1.4s.4,1.3.4,2.1-.2,1.7-.5,2.3c-.3.6-.7,1.1-1.2,1.5-.5.3-1.1.5-1.6.5s-.7,0-1-.2c-.3-.2-.7-.4-1-.6v1.3c0,0,0,2.5,0,2.5h-1.8ZM164.7,41.7c.4,0,.7,0,.9-.3.3-.2.5-.5.7-.9.2-.4.2-.9.2-1.5s0-1-.2-1.3-.3-.7-.6-.8c-.2-.2-.6-.3-1-.3s-.6,0-.9.2c-.3.1-.6.4-.9.7v3.7c.3.2.6.4.8.5.3,0,.5.1.8.1h0ZM172.7,43.2c-.9,0-1.6-.3-1.9-.8-.4-.5-.6-1.2-.6-2.1v-3.7h-1.1v-1.4h1.2c0,0,.2-2.5.2-2.5h1.5v2.5h2v1.5h-2v3.7c0,.5,0,.8.3,1,.2.2.5.3.8.3s.3,0,.4,0,.3,0,.4-.1l.3,1.3c-.2,0-.4.2-.7.2s-.6,0-.9,0h0ZM178.9,43v-7.9h1.5v1.1h.2c.3-.3.7-.7,1.1-.9.4-.2.8-.4,1.3-.4s1.1.1,1.4.4.6.6.8,1c.4-.4.8-.7,1.2-1,.4-.3.9-.4,1.4-.4.8,0,1.4.3,1.8.8.4.5.6,1.3.6,2.3v4.9h-1.9v-4.7c0-.7-.1-1.1-.3-1.4-.2-.3-.5-.4-.9-.4s-.5,0-.8.2c-.3.2-.6.4-.9.7v5.5h-1.8v-4.7c0-.7-.1-1.1-.3-1.4-.2-.3-.5-.4-.9-.4s-1,.3-1.6,1v5.5h-1.8ZM195.8,43.2c-.7,0-1.4-.2-2-.5-.6-.3-1.1-.8-1.4-1.4-.3-.6-.5-1.4-.5-2.2s.2-1.6.5-2.2c.4-.6.8-1.1,1.4-1.4.6-.3,1.1-.5,1.8-.5s1.3.2,1.8.5.8.8,1.1,1.3c.2.5.4,1.2.4,1.9s0,.3,0,.5c0,.2,0,.3,0,.5h-5.4v-1.4h3.9c0-.6-.1-1-.4-1.3-.3-.3-.6-.5-1.2-.5s-.6,0-.9.2c-.3.2-.5.4-.7.8-.2.4-.3.9-.3,1.6s.1,1.1.3,1.5c.2.4.5.7.9.9.4.2.7.3,1.1.3s.7,0,1-.1c.3,0,.6-.2.9-.4l.6,1.2c-.4.3-.8.5-1.2.6-.5.2-.9.2-1.4.2h0ZM203.1,43.2c-.9,0-1.6-.3-1.9-.8-.4-.5-.6-1.2-.6-2.1v-3.7h-1.1v-1.4h1.2c0,0,.2-2.5.2-2.5h1.5v2.5h2v1.5h-2v3.7c0,.5,0,.8.3,1,.2.2.5.3.8.3s.3,0,.4,0,.3,0,.4-.1l.3,1.3c-.2,0-.4.2-.7.2s-.6,0-.9,0h0ZM211.2,43.2c-.5,0-.9,0-1.2-.3-.4-.2-.6-.5-.8-.8-.2-.3-.3-.8-.3-1.2,0-.9.4-1.5,1.1-2,.8-.5,1.9-.8,3.5-.9,0-.3,0-.5-.2-.7,0-.2-.2-.4-.4-.5-.2-.1-.5-.2-.8-.2s-.8,0-1.1.2c-.4.1-.7.3-1.1.5l-.7-1.2c.3-.2.6-.3.9-.5.3-.2.7-.3,1.1-.4.4,0,.8-.1,1.2-.1.6,0,1.2.1,1.6.4.4.3.8.6,1,1.2.2.5.3,1.1.3,1.9v4.6h-1.5v-.9h-.2c-.4.3-.7.5-1.1.8-.4.2-.8.3-1.3.3h0ZM211.8,41.7c.3,0,.6,0,.9-.2.3-.1.6-.3.9-.6v-1.7c-.7,0-1.3.2-1.7.3s-.7.3-.9.5c-.2.2-.3.4-.3.7s.1.6.3.7c.2.1.5.2.8.2h0ZM219.5,43.2c-.5,0-.9,0-1.2-.3-.4-.2-.6-.5-.8-.8-.2-.3-.3-.8-.3-1.2,0-.9.4-1.5,1.1-2,.8-.5,1.9-.8,3.5-.9,0-.3,0-.5-.2-.7,0-.2-.2-.4-.4-.5-.2-.1-.5-.2-.8-.2s-.8,0-1.1.2c-.4.1-.7.3-1.1.5l-.7-1.2c.3-.2.6-.3.9-.5.3-.2.7-.3,1.1-.4.4,0,.8-.1,1.2-.1.6,0,1.2.1,1.6.4.4.3.8.6,1,1.2.2.5.3,1.1.3,1.9v4.6h-1.5v-.9h-.2c-.4.3-.7.5-1.1.8-.4.2-.8.3-1.3.3h0ZM220.1,41.7c.3,0,.6,0,.9-.2.3-.1.6-.3.9-.6v-1.7c-.7,0-1.3.2-1.7.3s-.7.3-.9.5c-.2.2-.3.4-.3.7s.1.6.3.7c.2.1.5.2.8.2h0ZM225.8,43v-7.9h1.5v1.1h.2c.4-.3.7-.6,1.1-.9.4-.2.9-.4,1.4-.4.8,0,1.5.3,1.8.8.4.5.6,1.3.6,2.3v4.9h-1.8v-4.7c0-.7-.1-1.1-.3-1.4s-.5-.4-.9-.4-.6,0-.9.3c-.3.2-.6.4-.9.7v5.5h-1.8ZM237,43.2c-.5,0-1.1,0-1.6-.3-.5-.2-1-.5-1.4-.8l.8-1.1c.4.3.7.5,1.1.6.4.1.8.2,1.1.2s.7,0,.9-.3.3-.4.3-.7,0-.4-.2-.5c-.1-.2-.4-.3-.6-.4-.2-.1-.5-.2-.8-.3-.4-.1-.7-.3-1.1-.5s-.6-.5-.8-.7c-.2-.3-.3-.7-.3-1.1,0-.7.3-1.3.8-1.7.5-.4,1.2-.7,2.1-.7s1,0,1.5.3c.4.2.8.4,1.1.7l-.8,1c-.3-.2-.6-.3-.9-.5-.3,0-.6-.1-.9-.1s-.7,0-.9.3-.3.4-.3.6,0,.4.2.5c.1.1.3.2.5.3s.5.2.9.3c.4.1.8.3,1.1.5.4.2.6.4.8.8.2.3.3.7.3,1.1s-.1.9-.4,1.2c-.2.4-.6.7-1,.9-.4.2-1,.3-1.7.3h0ZM243.5,43.2c-.4,0-.8,0-1.1-.3-.3-.2-.4-.4-.6-.8s-.2-.7-.2-1.2v-9.2h1.8v9.3c0,.2,0,.4.1.5,0,0,.2.1.3.1h.1s.1,0,.2,0l.2,1.4c-.1,0-.2,0-.4.1-.2,0-.4,0-.6,0h0ZM248.3,43.2c-.8,0-1.5-.3-1.8-.8s-.6-1.3-.6-2.3v-4.9h1.8v4.7c0,.7.1,1.1.3,1.4s.5.4.9.4.6,0,.9-.3c.3-.2.5-.5.9-.8v-5.4h1.8v7.9h-1.5v-1.2h-.2c-.3.4-.7.7-1.1,1-.4.2-.9.4-1.4.4h0ZM254.9,43v-7.9h1.8v7.9h-1.8ZM255.8,33.8c-.3,0-.6,0-.8-.3-.2-.2-.3-.5-.3-.8s.1-.6.3-.8c.2-.2.5-.3.8-.3s.6,0,.8.3c.2.2.3.4.3.8s-.1.6-.3.8c-.2.2-.5.3-.8.3ZM261.9,43.2c-.9,0-1.5-.3-1.9-.8-.4-.5-.6-1.2-.6-2.1v-3.7h-1.1v-1.4h1.2c0,0,.2-2.5.2-2.5h1.5v2.5h2v1.5h-2v3.7c0,.5,0,.8.3,1,.2.2.5.3.8.3s.3,0,.4,0,.3,0,.4-.1l.3,1.3c-.2,0-.4.2-.7.2s-.6,0-.9,0h0ZM268,43.2c-.7,0-1.4-.2-2-.5-.6-.3-1-.8-1.4-1.4-.3-.6-.5-1.4-.5-2.2s.2-1.6.5-2.2c.4-.6.8-1.1,1.4-1.4.6-.3,1.1-.5,1.8-.5s1.3.2,1.8.5.8.8,1.1,1.3c.2.5.4,1.2.4,1.9s0,.3,0,.5c0,.2,0,.3,0,.5h-5.4v-1.4h3.9c0-.6-.1-1-.4-1.3-.3-.3-.6-.5-1.2-.5s-.6,0-.9.2c-.3.2-.5.4-.7.8-.2.4-.3.9-.3,1.6s.1,1.1.3,1.5c.2.4.5.7.9.9.4.2.7.3,1.1.3s.7,0,1-.1c.3,0,.6-.2.9-.4l.6,1.2c-.4.3-.8.5-1.2.6-.5.2-.9.2-1.4.2h0ZM272.7,43v-7.9h1.5v1.1h.2c.4-.3.7-.6,1.1-.9.4-.2.9-.4,1.4-.4.8,0,1.5.3,1.8.8.4.5.6,1.3.6,2.3v4.9h-1.8v-4.7c0-.7-.1-1.1-.3-1.4s-.5-.4-.9-.4-.6,0-.9.3c-.3.2-.5.4-.9.7v5.5h-1.8,0Z"/>
    </g>
  </g>
</svg>