<?xml version="1.0" encoding="UTF-8"?>
<svg id="Layer_2" xmlns="http://www.w3.org/2000/svg" version="1.1" viewBox="0 0 221.5 163">
  <!-- Generator: Adobe Illustrator 29.8.2, SVG Export Plug-In . SVG Version: 2.1.1 Build 3)  -->
  <defs>
    <style>
      .st0 {
        fill: #9746ff;
      }

      .st1 {
        fill: #fff;
      }

      .st2 {
        fill: #2e2e2e;
      }
    </style>
  </defs>
  <circle class="st1" cx="50.3" cy="81.5" r="43.5"/>
  <g id="Layer_1-2">
    <g>
      <rect class="st0" x="79.5" y="87.2" width="142" height="25" rx="6" ry="6"/>
      <path class="st1" d="M90.8,104.3c-.7,0-1.4-.1-2.1-.4-.6-.3-1.2-.7-1.7-1.1l1-1.2c.4.4.8.7,1.3.8.5.2,1,.3,1.5.3s1.1-.1,1.4-.4.5-.6.5-1,0-.5-.2-.7c-.1-.2-.3-.3-.6-.5s-.5-.3-.8-.4l-1.4-.6c-.3-.2-.7-.3-1-.6-.3-.2-.6-.5-.8-.9-.2-.4-.3-.8-.3-1.3s.2-1.1.4-1.5c.3-.4.7-.8,1.2-1.1.5-.3,1.1-.4,1.8-.4s1.2.1,1.8.3c.6.2,1,.5,1.4.9l-1,1.2c-.3-.3-.7-.5-1.1-.6-.4-.2-.8-.2-1.2-.2s-.9.1-1.2.3c-.3.2-.4.5-.4.9s0,.5.2.7c.2.2.4.3.6.4.3.1.5.2.8.3l1.4.6c.4.2.8.4,1.1.6s.6.5.7.9c.2.3.3.8.3,1.3s-.2,1.1-.4,1.6c-.3.5-.7.8-1.3,1.1-.6.3-1.2.4-2,.4h0ZM98.1,104.3c-.4,0-.8,0-1.1-.3-.2-.2-.4-.4-.6-.8-.1-.3-.2-.7-.2-1.2v-9.2h1.8v9.3c0,.2,0,.4.1.5,0,0,.2.1.3.1h.1c0,0,0,0,.2,0l.2,1.4c0,0-.2,0-.4.1-.2,0-.3,0-.6,0ZM103,104.3c-.8,0-1.5-.3-1.8-.8-.4-.5-.6-1.3-.6-2.3v-4.9h1.8v4.7c0,.7,0,1.1.3,1.4s.5.4.9.4.6,0,.9-.3c.3-.2.6-.4.8-.8v-5.4h1.8v7.9h-1.5l-.2-1.2h0c-.3.4-.7.7-1.1,1-.4.2-.9.4-1.4.4h0ZM109.6,104.2v-7.9h1.8v7.9h-1.8ZM110.5,94.9c-.3,0-.6,0-.8-.3-.2-.2-.3-.4-.3-.8s0-.6.3-.8c.2-.2.5-.3.8-.3s.6,0,.8.3c.2.2.3.4.3.8s0,.6-.3.8c-.2.2-.5.3-.8.3ZM116.5,104.3c-.9,0-1.6-.3-1.9-.8-.4-.5-.6-1.2-.6-2.1v-3.7h-1.1v-1.4h1.2c0,0,.2-2.5.2-2.5h1.5v2.5h2v1.5h-2v3.7c0,.5,0,.8.3,1,.2.2.5.3.8.3s.3,0,.4,0,.3,0,.4-.1l.3,1.3c-.2,0-.4.2-.7.2-.3,0-.6,0-.9,0h0ZM122.1,107.4c-.3,0-.5,0-.7,0-.2,0-.4,0-.5-.2l.3-1.4c.1,0,.2,0,.3,0,.1,0,.2,0,.3,0,.4,0,.6-.1.7-.4.1-.2.2-.6.2-1v-8.3h1.9v8.3c0,.6,0,1.1-.2,1.5-.2.4-.4.8-.8,1-.4.3-.8.4-1.5.4ZM123.7,94.9c-.3,0-.6,0-.8-.3-.2-.2-.3-.4-.3-.8s0-.6.3-.8c.2-.2.5-.3.8-.3s.6,0,.8.3c.2.2.3.4.3.8s0,.6-.3.8c-.2.2-.5.3-.8.3ZM130.3,104.3c-.7,0-1.4-.2-2-.5-.6-.3-1.1-.8-1.4-1.4-.3-.6-.5-1.4-.5-2.2s.2-1.6.5-2.2c.3-.6.8-1.1,1.4-1.4.6-.3,1.1-.5,1.8-.5s1.3.2,1.8.5.8.8,1.1,1.3c.2.6.4,1.2.4,1.9s0,.3,0,.5c0,.2,0,.3,0,.5h-5.4v-1.4h3.9c0-.6-.1-1-.4-1.3-.2-.3-.6-.5-1.2-.5s-.6,0-.9.2c-.3.2-.5.4-.7.8-.2.4-.3.9-.3,1.6s.1,1.1.3,1.5c.2.4.5.7.9.9.4.2.7.3,1.1.3s.7,0,1-.1c.3,0,.6-.2.9-.4l.6,1.2c-.4.3-.8.5-1.2.6-.5.2-.9.2-1.4.2h0ZM134.4,104.2v-1l3.7-5.4h-3.3v-1.5h5.6v1l-3.7,5.4h3.8v1.5h-6.1ZM145.3,104.3c-.7,0-1.4-.2-2-.5-.6-.3-1.1-.8-1.4-1.4-.3-.6-.5-1.4-.5-2.2s.2-1.6.5-2.2c.4-.6.8-1.1,1.4-1.4.6-.3,1.1-.5,1.8-.5s1.3.2,1.8.5.8.8,1.1,1.3c.2.6.4,1.2.4,1.9s0,.3,0,.5c0,.2,0,.3,0,.5h-5.4v-1.4h3.9c0-.6-.1-1-.4-1.3-.3-.3-.6-.5-1.2-.5s-.6,0-.9.2c-.3.2-.5.4-.7.8-.2.4-.3.9-.3,1.6s.1,1.1.3,1.5c.2.4.5.7.8.9.4.2.7.3,1.1.3s.7,0,1-.1c.3,0,.6-.2.9-.4l.6,1.2c-.4.3-.8.5-1.2.6-.5.2-.9.2-1.4.2h0ZM151.8,104.3c-.4,0-.8,0-1.1-.3-.3-.2-.4-.4-.6-.8-.1-.3-.2-.7-.2-1.2v-9.2h1.8v9.3c0,.2,0,.4.1.5,0,0,.2.1.3.1h.1s0,0,.2,0l.2,1.4c-.1,0-.2,0-.4.1-.2,0-.3,0-.6,0h0ZM154.7,104.2v-8.7c0-.5,0-1,.3-1.5.2-.4.5-.8.9-1,.4-.2.9-.4,1.5-.4s.6,0,.8,0c.3,0,.5.1.6.2l-.4,1.3c-.3,0-.6-.1-.8-.1s-.6.1-.7.3-.3.6-.3,1v8.7s-1.8,0-1.8,0ZM153.6,97.8v-1.4h1.3c0,0,3.3,0,3.3,0v1.5h-4.5ZM162.7,104.2v-7.9h1.5v1.1h.2c.4-.3.7-.6,1.1-.9.4-.2.9-.4,1.4-.4.9,0,1.5.3,1.8.8.4.5.6,1.3.6,2.3v4.9h-1.8v-4.7c0-.7-.1-1.1-.3-1.4-.2-.3-.5-.4-.9-.4s-.6,0-.9.3c-.2.2-.5.4-.9.7v5.5h-1.8ZM174,104.3c-.8,0-1.4-.3-1.8-.8-.4-.5-.6-1.3-.6-2.3v-4.9h1.8v4.7c0,.7,0,1.1.3,1.4.2.3.5.4.9.4s.6,0,.9-.3c.3-.2.6-.4.9-.8v-5.4h1.8v7.9h-1.5v-1.2h-.2c-.3.4-.7.7-1.1,1-.4.2-.9.4-1.4.4h0ZM185.6,104.3c-.5,0-.9,0-1.2-.3s-.6-.5-.8-.8c-.2-.3-.3-.8-.3-1.2,0-.9.4-1.6,1.1-2,.8-.5,1.9-.8,3.5-.9,0-.3,0-.5-.2-.7,0-.2-.2-.4-.4-.5-.2-.1-.5-.2-.8-.2s-.8,0-1.1.2c-.4.1-.7.3-1.1.5l-.7-1.2c.3-.2.6-.3.9-.5.4-.2.7-.3,1.1-.4.4,0,.8-.1,1.2-.1.6,0,1.2.1,1.6.4.4.3.8.6,1,1.2.2.5.3,1.1.3,1.9v4.6h-1.5v-.9h-.2c-.4.3-.7.6-1.1.8-.4.2-.8.3-1.3.3h0ZM186.2,102.8c.3,0,.6,0,.9-.2s.6-.3.9-.6v-1.7c-.7,0-1.3.2-1.7.3-.4.1-.7.3-.9.5-.2.2-.3.4-.3.7s.1.6.3.7c.2.1.5.2.8.2h0ZM193.9,104.3c-.5,0-.9,0-1.2-.3s-.6-.5-.8-.8c-.2-.3-.3-.8-.3-1.2,0-.9.4-1.6,1.1-2,.8-.5,1.9-.8,3.5-.9,0-.3,0-.5-.2-.7,0-.2-.2-.4-.4-.5-.2-.1-.5-.2-.8-.2s-.8,0-1.1.2c-.4.1-.7.3-1.1.5l-.7-1.2c.3-.2.6-.3.9-.5.4-.2.7-.3,1.1-.4.4,0,.8-.1,1.2-.1.6,0,1.2.1,1.6.4.4.3.8.6,1,1.2.2.5.3,1.1.3,1.9v4.6h-1.5v-.9h-.2c-.4.3-.7.6-1.1.8-.4.2-.8.3-1.3.3h0ZM194.4,102.8c.3,0,.6,0,.9-.2s.6-.3.9-.6v-1.7c-.7,0-1.3.2-1.7.3-.4.1-.7.3-.9.5-.2.2-.3.4-.3.7s.1.6.3.7c.2.1.5.2.8.2h0ZM200.2,104.2v-7.9h1.5v1.1h.2c.4-.3.7-.6,1.2-.9.4-.2.9-.4,1.4-.4.8,0,1.5.3,1.8.8s.6,1.3.6,2.3v4.9h-1.8v-4.7c0-.7-.1-1.1-.3-1.4-.2-.3-.5-.4-.9-.4s-.6,0-.9.3c-.2.2-.6.4-.9.7v5.5h-1.8ZM209.9,100.7l-.3-5.5v-1.8s1.8,0,1.8,0v1.8c0,0-.3,5.5-.3,5.5h-1.2ZM210.5,104.3c-.3,0-.6-.1-.8-.3-.2-.2-.4-.5-.4-.9s.1-.7.4-.9c.2-.2.5-.3.8-.3s.6.1.9.3c.2.2.3.5.3.9s-.1.7-.3.9c-.2.2-.5.3-.9.3Z"/>
    </g>
    <g>
      <path class="st2" d="M11.8,37.6c.4.3.9.4,1.4.2.2,0,.4-.2.6-.4.5-.6.4-1.5-.2-2L2.3,26.4c-.6-.5-1.5-.4-2,.2-.5.6-.4,1.5.2,2,0,0,11.2,9,11.3,9Z"/>
      <path class="st2" d="M44.7,25.5c.2,0,.5,0,.7,0,.5-.2.8-.6.9-1.1l2.2-14.2c.1-.8-.4-1.5-1.2-1.6-.8-.1-1.5.4-1.6,1.2l-2.2,14.2c-.1.8.4,1.5,1.2,1.6Z"/>
      <path class="st2" d="M28.5,29.5c.7-.3,1.1-1.1.8-1.8L18.8.9c-.3-.7-1.1-1.1-1.8-.8-.7.3-1.1,1.1-.8,1.8l10.4,26.8c.3.7,1.1,1.1,1.8.8h0Z"/>
      <path class="st2" d="M87.3,125.5c-.4-.3-.9-.4-1.4-.2-.2,0-.4.2-.6.4-.5.6-.4,1.5.2,1.9l11.2,9.1c.6.5,1.5.4,2-.2s.4-1.5-.2-2l-11.2-9.1h0Z"/>
      <path class="st2" d="M54.3,137.3c-.2,0-.5,0-.7,0-.5.2-.8.6-.9,1.1l-2.3,14.2c-.1.8.4,1.5,1.2,1.6.8.1,1.5-.4,1.6-1.1l2.3-14.2c.1-.8-.4-1.5-1.2-1.6h0Z"/>
      <path class="st2" d="M70.6,133.5c-.7.3-1.1,1.1-.8,1.8l10.2,26.9c.3.7,1.1,1.1,1.8.8s1.1-1.1.8-1.8l-10.2-26.9c-.3-.7-1.1-1.1-1.8-.8h0Z"/>
    </g>
  </g>
</svg>