<?xml version="1.0" encoding="UTF-8"?>
<svg id="Layer_2" data-name="Layer 2" xmlns="http://www.w3.org/2000/svg" viewBox="0 0 1025.9 84.61">
  <defs>
    <style>
      .cls-1 {
        fill: #181e34;
      }

      .cls-2 {
        fill: none;
        stroke: #181e34;
        stroke-width: 3px;
      }

      .cls-3 {
        fill: #fff;
      }
    </style>
  </defs>
  <g id="Layer_1-2" data-name="Layer 1">
    <g>
      <path class="cls-1" d="M1018.67,44.05c-.24-1.05-1.28-1.71-2.33-1.47l-12.49,2.77c-4.05.92-6.59,4.96-5.67,9.02.27,1.2-.31,2.44-1.41,2.99l-5.48,2.73c-1.4.7-2.14,2.27-1.79,3.79l1.45,6.36c.35,1.53,1.69,2.62,3.26,2.64l6.13.08c1.23.02,2.29.88,2.57,2.08.92,4.06,4.96,6.6,9.01,5.67l12.47-2.77c1.06-.23,1.72-1.29,1.48-2.34l-7.18-31.55Z"/>
      <path class="cls-3" d="M1017.36,68.44l-3.13-14.76c-.13-.6-.71-.98-1.31-.85-.6.13-.98.71-.85,1.31l3.13,14.76c.1.47.48.8.92.86.12.02.25.01.38-.01.6-.13.98-.71.85-1.31Z"/>
      <path class="cls-3" d="M1010.07,57.95c-.13-.6-.71-.98-1.31-.85-.6.13-.98.71-.85,1.31l1.85,8.73c.1.47.48.8.92.86.12.02.25.01.39-.01.6-.13.98-.71.85-1.31l-1.85-8.73Z"/>
      <path class="cls-2" d="M.3,45.11C100.97,24.45,154.3-9.68,366.3,5.11c108,7.53,202,78,454,78,67.2,0,141.33-10.67,170-16"/>
    </g>
  </g>
</svg>