<?xml version="1.0" encoding="UTF-8"?>
<svg id="Layer_2" data-name="Layer 2" xmlns="http://www.w3.org/2000/svg" viewBox="0 0 1144.17 78.43">
  <defs>
    <style>
      .cls-1 {
        fill: #181e34;
      }

      .cls-2 {
        fill: none;
        stroke: #181e34;
        stroke-width: 3px;
      }

      .cls-3 {
        fill: #fff;
      }
    </style>
  </defs>
  <g id="Layer_2-2" data-name="Layer 2">
    <g id="Layer_1-2" data-name="Layer 1-2">
      <g>
        <path class="cls-2" d="M1143.48,21.33s-54.3-28.1-182-17.4c-90,7.5-118.7,73-433,73-240,0-230.5-47.5-333-56.5-64.8-5.7-97,12.2-153.1,25.1"/>
        <path class="cls-1" d="M15.88,35.93c-.3-1.2-1.5-2-2.8-1.7l-1.1.3,8.3,35.2,1.1-.3c1.2-.3,2-1.5,1.7-2.7,0,0-7.2-30.8-7.2-30.8Z"/>
        <path class="cls-1" d="M16.28,59.33l-10.9,2.4c-1,.2-1.6,1.2-1.3,2.2,0,.5.4.9.8,1.1.2,0,.5.2.7.2h.7l10.9-2.4-.8-3.5s-.1,0-.1,0Z"/>
        <path class="cls-1" d="M12.28,41.83l-10.9,2.4c-1,.2-1.6,1.2-1.3,2.2.2.7.8,1.3,1.5,1.4s.4,0,.7,0l10.9-2.4-.8-3.5h-.1v-.1Z"/>
        <path class="cls-1" d="M25.08,66.53l10.2-2.4c3.6-.8,5.8-4.4,5-8-.3-1.1.3-2.2,1.2-2.7l4.9-2.4c1.2-.6,1.9-2,1.6-3.4l-1.3-5.6c-.3-1.3-1.5-2.3-2.9-2.3h-5.4c-1.1,0-2-.8-2.3-1.9-.8-3.6-4.5-5.8-8-5l-10.2,2.4,7.4,31.3s-.2,0-.2,0Z"/>
        <path class="cls-3" d="M26.28,49.53l9.8,1.7c.6,0,1-.5.7-1l-1-1.8c-.2-.4,0-1,.5-1l2.9-.3c.8,0,.8-1.2,0-1.4l-8.5-1.5c-.6,0-1,.5-.7,1l.8,1.5c.2.4,0,1-.5,1l-4,.4c-.8,0-.8,1.2,0,1.4h0Z"/>
      </g>
    </g>
  </g>
</svg>