<?xml version="1.0" encoding="UTF-8"?>
<svg id="Laag_1" data-name="Laag 1" xmlns="http://www.w3.org/2000/svg" xmlns:xlink="http://www.w3.org/1999/xlink" viewBox="0 0 500 500">
  <defs>
    <style>
      .cls-1, .cls-2 {
        fill: none;
      }

      .cls-3 {
        fill: #181e34;
      }

      .cls-2 {
        stroke: #fed375;
        stroke-miterlimit: 10;
        stroke-width: 12px;
      }

      .cls-2, .cls-4, .cls-5 {
        stroke-linecap: round;
      }

      .cls-4 {
        fill: #fff;
        stroke: #1ebcb2;
      }

      .cls-4, .cls-5 {
        stroke-linejoin: round;
        stroke-width: 2.8px;
      }

      .cls-5 {
        fill: #1ebcb2;
        stroke: #181e34;
      }

      .cls-6 {
        clip-path: url(#clippath);
      }
    </style>
    <clipPath id="clippath">
      <rect class="cls-1" x="52.98" y="92.22" width="394.03" height="315.56"/>
    </clipPath>
  </defs>
  <g class="cls-6">
    <g>
      <g>
        <polygon class="cls-5" points="445.5 450.01 445.5 302.54 406.63 279.53 367.29 302.54 367.29 450.01 406.39 472.86 445.5 450.01"/>
        <polyline class="cls-5" points="445.5 302.54 406.39 324.58 367.29 302.54"/>
      </g>
      <g>
        <polygon class="cls-4" points="445.5 303.25 445.5 274.87 406.63 251.86 367.29 274.87 367.29 303.25 406.39 326.1 445.5 303.25"/>
        <polyline class="cls-4" points="445.5 274.87 406.39 296.91 367.29 274.87"/>
      </g>
      <g>
        <polygon class="cls-5" points="406.39 440.81 406.39 253.42 367.52 230.42 328.18 253.42 328.18 440.81 367.29 463.65 406.39 440.81"/>
        <polyline class="cls-5" points="406.39 253.42 367.29 275.47 328.18 253.42"/>
      </g>
      <g>
        <polygon class="cls-4" points="406.39 255.09 406.39 226.71 367.52 203.7 328.18 226.71 328.18 255.09 367.29 277.94 406.39 255.09"/>
        <polyline class="cls-4" points="406.39 226.71 367.29 248.75 328.18 226.71"/>
      </g>
      <g>
        <polygon class="cls-5" points="367.29 440.81 367.29 223.42 328.42 200.41 289.08 223.42 289.08 440.81 328.18 463.65 367.29 440.81"/>
        <polyline class="cls-5" points="367.29 223.42 328.18 245.46 289.08 223.42"/>
      </g>
      <g>
        <polygon class="cls-4" points="367.29 224.04 367.29 195.65 328.42 172.65 289.08 195.65 289.08 224.04 328.18 246.88 367.29 224.04"/>
        <polyline class="cls-4" points="367.29 195.65 328.18 217.7 289.08 195.65"/>
      </g>
      <g>
        <polygon class="cls-5" points="328.18 448.81 328.18 218.77 289.32 195.77 249.97 218.77 249.97 448.81 289.08 471.65 328.18 448.81"/>
        <polyline class="cls-5" points="328.18 218.77 289.08 240.82 249.97 218.77"/>
      </g>
      <g>
        <polygon class="cls-4" points="328.18 221.08 328.18 192.7 289.32 169.69 249.97 192.7 249.97 221.08 289.08 243.93 328.18 221.08"/>
        <polyline class="cls-4" points="328.18 192.7 289.08 214.74 249.97 192.7"/>
      </g>
      <g>
        <polygon class="cls-5" points="289.08 451.21 289.08 164.85 250.21 141.84 210.87 164.85 210.87 451.21 249.97 474.05 289.08 451.21"/>
        <polyline class="cls-5" points="289.08 164.85 249.97 186.89 210.87 164.85"/>
      </g>
      <g>
        <polygon class="cls-5" points="249.97 451.21 249.97 243.93 211.11 220.92 171.77 243.93 171.77 451.21 210.87 474.05 249.97 451.21"/>
        <polyline class="cls-5" points="249.97 243.93 210.87 265.97 171.77 243.93"/>
      </g>
      <g>
        <polygon class="cls-4" points="249.97 244.69 249.97 216.31 211.11 193.3 171.77 216.31 171.77 244.69 210.87 267.54 249.97 244.69"/>
        <polyline class="cls-4" points="249.97 216.31 210.87 238.35 171.77 216.31"/>
      </g>
      <g>
        <polygon class="cls-5" points="210.87 472.86 210.87 288.98 172 265.97 132.66 288.98 132.66 472.86 171.77 495.7 210.87 472.86"/>
        <polyline class="cls-5" points="210.87 288.98 171.77 311.02 132.66 288.98"/>
      </g>
      <g>
        <polygon class="cls-4" points="210.87 289.74 210.87 261.36 172 238.35 132.66 261.36 132.66 289.74 171.77 312.59 210.87 289.74"/>
        <polyline class="cls-4" points="210.87 261.36 171.77 283.4 132.66 261.36"/>
      </g>
      <g>
        <polygon class="cls-5" points="171.77 472.06 171.77 280.96 132.9 257.95 93.56 280.96 93.56 472.06 132.66 494.9 171.77 472.06"/>
        <polyline class="cls-5" points="171.77 280.96 132.66 303 93.56 280.96"/>
      </g>
      <g>
        <polygon class="cls-4" points="171.77 281.81 171.77 253.42 132.9 230.42 93.56 253.42 93.56 281.81 132.66 304.65 171.77 281.81"/>
        <polyline class="cls-4" points="171.77 253.42 132.66 275.47 93.56 253.42"/>
      </g>
      <g>
        <polygon class="cls-4" points="289.08 166.34 289.08 137.95 250.21 114.95 210.87 137.95 210.87 166.34 249.97 189.18 289.08 166.34"/>
        <polyline class="cls-4" points="289.08 137.95 249.97 160 210.87 137.95"/>
      </g>
      <g>
        <polygon class="cls-5" points="132.66 456.95 132.66 339.65 93.79 316.64 54.45 339.65 54.45 456.95 93.56 479.8 132.66 456.95"/>
        <polyline class="cls-5" points="132.66 339.65 93.56 361.69 54.45 339.65"/>
      </g>
      <g>
        <polygon class="cls-4" points="132.66 353.8 132.66 325.42 93.79 302.41 54.45 325.42 54.45 353.8 93.56 376.64 132.66 353.8"/>
        <polyline class="cls-4" points="132.66 325.42 93.56 347.46 54.45 325.42"/>
      </g>
      <path class="cls-2" d="M36.73,384.08l87.9-160.1c4.16-7.59,14.21-9.5,20.87-3.97l7.94,6.59c6.6,5.48,16.55,3.66,20.78-3.81l66.08-116.75c4.98-8.8,17.43-9.41,23.25-1.14l15.4,24.53"/>
      <polyline class="cls-4" points="253.35 116.81 289.08 137.95 249.97 160"/>
      <g>
        <path class="cls-3" d="M261.62,141.05c-5.77,3.36-15.13,3.32-21-.1-5.97-3.47-6.22-9.18-.41-12.71,2.85-1.73,6.68-2.67,10.79-2.63,1.3.01,2.35.66,2.36,1.44,0,.78-1.04,1.41-2.33,1.4-2.83-.02-5.47.62-7.44,1.81-4.03,2.43-3.89,6.38.23,8.8,4.08,2.39,10.6,2.42,14.61.07,1.96-1.15,3.05-2.69,3.06-4.34,0-.76,1.04-1.37,2.32-1.37,1.27,0,2.3.63,2.28,1.39-.04,2.38-1.62,4.59-4.45,6.24Z"/>
        <g>
          <path class="cls-3" d="M249.54,134.16l-11.7,6.97c-.87.52-2.32.51-3.24-.01s-.96-1.39-.09-1.91l11.71-7.03c.9-.54,2.37-.53,3.29.02s.92,1.43.03,1.96Z"/>
          <path class="cls-3" d="M255.29,137.6l-11.67,6.88c-.87.51-2.31.51-3.21-.01s-.94-1.37-.06-1.88l11.69-6.93c.9-.53,2.36-.52,3.26.02s.9,1.4,0,1.93Z"/>
        </g>
      </g>
    </g>
  </g>
</svg>