<?xml version="1.0" encoding="UTF-8"?>
<svg id="Laag_1" data-name="Laag 1" xmlns="http://www.w3.org/2000/svg" xmlns:xlink="http://www.w3.org/1999/xlink" viewBox="0 0 500 500">
  <defs>
    <style>
      .cls-1, .cls-2, .cls-3 {
        fill: none;
      }

      .cls-4 {
        fill: #181e34;
      }

      .cls-5 {
        fill: #fed375;
      }

      .cls-6 {
        clip-path: url(#clippath-1);
      }

      .cls-7 {
        clip-path: url(#clippath-4);
      }

      .cls-8 {
        clip-path: url(#clippath-2);
      }

      .cls-2 {
        stroke: #fff;
        stroke-linecap: round;
        stroke-linejoin: round;
        stroke-width: 1.67px;
      }

      .cls-9 {
        fill: #fff;
      }

      .cls-10 {
        fill: #dedede;
      }

      .cls-3 {
        stroke: #1ebcb2;
        stroke-miterlimit: 10;
        stroke-width: 2.43px;
      }
    </style>
    <clipPath id="clippath-1">
      <path class="cls-1" d="M86.13,61.3h271.21c22.55,0,40.86,18.31,40.86,40.86v113.84c0,22.55-18.31,40.86-40.86,40.86H126.99c-22.55,0-40.86-18.31-40.86-40.86V61.3h0Z"/>
    </clipPath>
    <clipPath id="clippath-2">
      <path class="cls-1" d="M86.13,61.3h273.49c21.29,0,38.58,17.29,38.58,38.58v118.41c0,21.29-17.29,38.58-38.58,38.58H124.71c-21.29,0-38.58-17.29-38.58-38.58V61.3h0Z"/>
    </clipPath>
    <clipPath id="clippath-4">
      <path class="cls-1" d="M86.13,61.3h273.52c21.27,0,38.55,17.27,38.55,38.55v118.47c0,21.27-17.27,38.55-38.55,38.55H124.67c-21.27,0-38.55-17.27-38.55-38.55V61.3h0Z"/>
    </clipPath>
  </defs>
  <path class="cls-4" d="M153.04,386.43c-.98,0-1.99-.03-3.03-.08-21.54-1.07-31.67-14.91-32.16-28.16-.52-14.03,10.11-30.52,34.68-33.57,16.38-2.03,26.26-9.43,26.42-19.79.15-9.55-7.86-18.29-18.22-19.9-6.01-.94-10.41-3.69-13.08-8.17-5.74-9.66-.78-23.79-.57-24.39l6.19,2.21c-.04.12-4.13,11.84.04,18.83,1.64,2.75,4.4,4.4,8.43,5.03,13.53,2.11,23.98,13.75,23.78,26.5-.08,5.22-2.64,22.55-32.18,26.21-20.57,2.55-29.35,15.3-28.92,26.8.53,14.22,13.4,21.22,25.92,21.84,16.52.81,25.09-6.02,35-13.94,12.49-9.97,26.64-21.28,58.8-21.28v6.57c-29.86,0-42.49,10.09-54.7,19.84-9.93,7.93-19.34,15.45-36.4,15.45Z"/>
  <path class="cls-5" d="M86.13,61.3h238.09c40.83,0,73.98,33.15,73.98,73.98v47.6c0,40.83-33.15,73.98-73.98,73.98h-164.11c-40.83,0-73.98-33.15-73.98-73.98V61.3h0Z"/>
  <g class="cls-6">
    <path class="cls-10" d="M192.92,44.68c-3.89.56-151.52,157.62-151.52,157.62l351.87,74.37,120.99-228.66-321.35-3.33Z"/>
  </g>
  <g class="cls-8">
    <g>
      <line class="cls-2" x1="232.88" y1="50.23" x2="69.71" y2="237.82"/>
      <line class="cls-2" x1="290.62" y1="53.11" x2="143.52" y2="228.94"/>
      <line class="cls-2" x1="348.88" y1="51.34" x2="196.8" y2="240.6"/>
      <line class="cls-2" x1="407.71" y1="66.88" x2="261.69" y2="254.89"/>
      <line class="cls-2" x1="451.55" y1="83.53" x2="312.64" y2="267.22"/>
    </g>
  </g>
  <polygon class="cls-9" points="361.39 111.49 361.39 117.3 302.53 193.7 115.98 158.29 115.98 154.7 361.39 111.49"/>
  <polygon class="cls-4" points="177.95 91.02 361.39 111.49 300.7 189.73 115.98 154.7 177.95 91.02"/>
  <g class="cls-7">
    <polygon class="cls-9" points="383.29 283.33 40.29 210.07 41.4 202.3 393.28 276.67 383.29 283.33"/>
    <polyline class="cls-10" points="310.55 264 74.26 214.69 74.26 261.04 260.76 261.04"/>
  </g>
  <path class="cls-5" d="M180.67,166.94l14.67,2.74,105.96-65.05-17.6-1.93c-26.81,16.41-80.71,50.23-103.03,64.25Z"/>
  <path class="cls-5" d="M218.45,174.11l105.14-66.82-8.87-.99c-22.37,13.74-79.2,49.91-104.74,66.2l8.47,1.6Z"/>
  <g>
    <line class="cls-2" x1="147.96" y1="120" x2="336.79" y2="146.91"/>
    <line class="cls-2" x1="322.81" y1="106.31" x2="258.71" y2="181.77"/>
    <line class="cls-2" x1="283.8" y1="102.69" x2="221.23" y2="175.01"/>
    <line class="cls-2" x1="247.07" y1="98.32" x2="185.71" y2="169.19"/>
    <line class="cls-2" x1="209.04" y1="94.3" x2="150.17" y2="162.14"/>
  </g>
  <g>
    <g>
      <path class="cls-4" d="M279.27,422.25c1.01.63,4.36,2.62,5.7,3.41.35.21.57.59.57,1v2.08c0,.31.12.61.34.82l1.63,1.63c.22.22.34.51.34.82v2.18c0,.64-.52,1.17-1.17,1.17h-.09c-.55,0-1.01.39-1.14.92-.23.94-1.03,2.27-3.75,2.4s-3.75-.75-4.07-1.36c-.18-.35-.54-.58-.93-.62l-4.2-.35c-.6-.05-1.07-.56-1.07-1.16v-1.17c0-.66-.56-1.2-1.22-1.16-.47.03-.9.01-.9-.12v-9.51c0-.64.52-1.17,1.17-1.17h8.16c.22,0,.43.06.62.18Z"/>
      <path class="cls-4" d="M246.8,413.93c-1.01.63-4.36,2.62-5.7,3.41-.35.21-.57.59-.57,1v2.08c0,.31-.12.61-.34.82l-1.63,1.63c-.22.22-.34.51-.34.82v2.18c0,.64.52,1.17,1.17,1.17h.09c.55,0,1.01.39,1.14.92.23.94,1.03,2.27,3.75,2.4s3.75-.75,4.07-1.36c.18-.35.54-.58.93-.62l4.2-.35c.6-.05,1.07-.56,1.07-1.16v-1.17c0-.66.56-1.2,1.22-1.16.47.03.9.01.9-.12v-9.51c0-.64-.52-1.17-1.17-1.17h-8.16c-.22,0-.43.06-.62.18Z"/>
      <path class="cls-4" d="M281.72,203.38v-5.1l-2.55-6.18h-27.26l-2.42,6.31s-.54,6.18,0,6.18h9v-10.07h13.97v10.07h9.27v-1.21Z"/>
      <path class="cls-4" d="M409.46,203.38h-136.64c-2.43,0-4.4,1.97-4.4,4.4v212.64c0,2.62,2.28,4.66,4.88,4.37l136.64-15.14c2.23-.25,3.91-2.13,3.91-4.37v-197.5c0-2.43-1.97-4.4-4.4-4.4Z"/>
      <path d="M272.82,203.38h-33.34c-4.26,0-7.72,3.46-7.72,7.72v196.35c0,3.44,2.28,6.47,5.59,7.42l34.69,9.94.77-221.43Z"/>
      <line class="cls-3" x1="413.86" y1="252.62" x2="272.65" y2="254.14"/>
      <path class="cls-4" d="M393.04,203.38v-5.1l-2.55-6.18h-27.26l-2.42,6.31s-.54,6.18,0,6.18h9v-10.07h13.97v10.07h9.27v-1.21Z"/>
      <path class="cls-4" d="M396.2,409.31c1.01.63,4.36,2.62,5.7,3.41.35.21.57.59.57,1v2.08c0,.31.12.61.34.82l1.63,1.63c.22.22.34.51.34.82v2.18c0,.64-.52,1.17-1.17,1.17h-.09c-.55,0-1.01.39-1.14.92-.23.94-1.03,2.27-3.75,2.4s-3.75-.75-4.07-1.36c-.18-.35-.54-.58-.93-.62l-4.2-.35c-.6-.05-1.07-.56-1.07-1.16v-1.17c0-.66-.56-1.2-1.22-1.16-.47.03-.9.01-.9-.12v-9.51c0-.64.52-1.17,1.17-1.17h8.16c.22,0,.43.06.62.18Z"/>
      <path class="cls-4" d="M360.75,401c1.01.63,4.36,2.62,5.7,3.41.35.21.57.59.57,1v2.08c0,.31.12.61.34.82l1.63,1.63c.22.22.34.51.34.82v2.18c0,.64-.52,1.17-1.17,1.17h-.09c-.55,0-1.01.39-1.14.92-.23.94-1.03,2.27-3.75,2.4-2.8.13-3.75-.75-4.07-1.36-.18-.35-.54-.58-.93-.62l-4.2-.35c-.6-.05-1.07-.56-1.07-1.16v-1.17c0-.66-.56-1.2-1.22-1.16-.47.03-.9.01-.9-.12v-9.51c0-.64.52-1.17,1.17-1.17h8.16c.22,0,.43.06.62.18Z"/>
    </g>
    <path class="cls-5" d="M266.79,359.85v14.57c0,2.07-1.86,3.63-3.89,3.29l-22.88-3.88c-1.6-.27-2.78-1.66-2.78-3.29v-12.97c0-1.97,1.7-3.52,3.67-3.32l22.88,2.28c1.71.17,3,1.61,3,3.32Z"/>
    <path class="cls-5" d="M266.79,331.09v14.76c0,1.97-1.69,3.51-3.65,3.32l-22.88-2.17c-1.71-.16-3.02-1.6-3.02-3.32v-14.19c0-1.93,1.64-3.46,3.57-3.33l22.88,1.6c1.75.12,3.1,1.58,3.1,3.33Z"/>
    <path class="cls-5" d="M266.79,300.52v16.31c0,1.9-1.59,3.42-3.49,3.33l-22.88-1.08c-1.78-.08-3.18-1.55-3.18-3.33v-15.63c0-1.87,1.53-3.37,3.39-3.33l22.88.4c1.82.03,3.28,1.52,3.28,3.33Z"/>
  </g>
  <polygon class="cls-5" points="338.25 278.17 322.81 328.46 343.65 328.48 336.03 352.18 352.16 352.21 346.76 372.55 369.31 335.23 354.18 335.23 367.13 306.77 349.04 306.76 361.11 278.18 338.25 278.17"/>
</svg>