<?xml version="1.0" encoding="UTF-8"?>
<svg id="Laag_1" data-name="Laag 1" xmlns="http://www.w3.org/2000/svg" xmlns:xlink="http://www.w3.org/1999/xlink" viewBox="0 0 500 500">
  <defs>
    <style>
      .cls-1, .cls-2, .cls-3, .cls-4, .cls-5 {
        fill: none;
      }

      .cls-6, .cls-7 {
        fill: #181e34;
      }

      .cls-2 {
        stroke-width: 15.71px;
      }

      .cls-2, .cls-7 {
        stroke: #181e34;
      }

      .cls-2, .cls-5 {
        stroke-miterlimit: 10;
      }

      .cls-8 {
        fill: #fed375;
      }

      .cls-9, .cls-10, .cls-3, .cls-11, .cls-7, .cls-4 {
        stroke-linejoin: round;
      }

      .cls-9, .cls-10, .cls-11, .cls-7, .cls-4 {
        stroke-linecap: round;
      }

      .cls-9, .cls-12 {
        fill: #fff;
      }

      .cls-9, .cls-3, .cls-4 {
        stroke: #dedede;
      }

      .cls-9, .cls-7, .cls-4 {
        stroke-width: 2.41px;
      }

      .cls-10 {
        fill: #f0a69f;
        stroke: #f0a69f;
        stroke-width: 2.73px;
      }

      .cls-13 {
        clip-path: url(#clippath-1);
      }

      .cls-14 {
        clip-path: url(#clippath-2);
      }

      .cls-15 {
        fill: #1ebcb2;
      }

      .cls-3 {
        stroke-width: 2.4px;
      }

      .cls-16, .cls-11 {
        fill: #dedede;
      }

      .cls-11 {
        stroke: #fff;
      }

      .cls-11, .cls-5 {
        stroke-width: 2.71px;
      }

      .cls-5 {
        stroke: #1ebcb2;
      }

      .cls-17 {
        clip-path: url(#clippath);
      }
    </style>
    <clipPath id="clippath">
      <path class="cls-1" d="M52.98,57.84h329.78c35.46,0,64.25,28.79,64.25,64.25v255.82c0,35.46-28.79,64.25-64.25,64.25H117.23c-35.46,0-64.25-28.79-64.25-64.25V57.84h0Z"/>
    </clipPath>
    <clipPath id="clippath-1">
      <path class="cls-1" d="M74.32,425.72c11.38,10.22,26.42,16.44,42.91,16.44h265.53c35.48,0,64.25-28.76,64.25-64.25V122.09c0-18.95-8.2-35.97-21.25-47.73-94.54,94.57-256.89,256.85-351.45,351.36Z"/>
    </clipPath>
    <clipPath id="clippath-2">
      <polygon class="cls-1" points="317.43 287.69 268.75 287.69 268.75 325.61 319.15 325.61 317.43 287.69"/>
    </clipPath>
  </defs>
  <path class="cls-8" d="M52.98,57.84h329.78c35.46,0,64.25,28.79,64.25,64.25v255.82c0,35.46-28.79,64.25-64.25,64.25H117.23c-35.46,0-64.25-28.79-64.25-64.25V57.84h0Z"/>
  <g class="cls-17">
    <g>
      <polygon class="cls-7" points="141.5 299.86 141.5 283.55 128.39 283.55 128.39 300.31 131.51 313.07 143.99 310.02 141.5 299.86"/>
      <path class="cls-7" d="M138.19,306h2.71c5.28,0,9.56,4.28,9.56,9.56v16.24h-21.83v-16.24c0-5.28,4.28-9.56,9.56-9.56Z" transform="translate(-71.71 42.24) rotate(-13.73)"/>
      <rect class="cls-7" x="210.53" y="283.55" width="12.86" height="114.86"/>
      <g>
        <rect class="cls-7" x="131.92" y="24.07" width="33.12" height="60.37"/>
        <rect class="cls-7" x="186.02" y="24.07" width="33.12" height="60.37"/>
      </g>
      <path class="cls-9" d="M170.12,316.71l-11.48-11.48c-1.09-1.09-2.86-1.09-3.95,0l-21.08,21.08c-.99.99-1.54,2.32-1.54,3.72v26.7c0,1.06-.86,1.93-1.93,1.93h-3.56c-1.06,0-1.93-.86-1.93-1.93v-15.28c0-5.04-4.09-9.13-9.13-9.13h-32.8c-5.04,0-9.13,4.09-9.13,9.13v129.52h21.83v-115c0-1,.81-1.82,1.82-1.82h3.78c1,0,1.82.81,1.82,1.82v15.39c0,5.04,4.09,9.13,9.13,9.13h32.8c5.04,0,9.13-4.09,9.13-9.13v-32.28c0-1.39.55-2.73,1.54-3.72l14.69-14.69c1.09-1.09,1.09-2.86,0-3.95Z"/>
      <polygon class="cls-9" points="184.82 283.55 171.98 283.55 171.98 293.66 155.82 309.81 164.91 318.9 184.83 298.98 184.82 283.55"/>
      <rect class="cls-9" x="191.24" y="283.55" width="12.86" height="25.56"/>
      <path class="cls-9" d="M204.1,318.92h-12.86v12.75c0,.74-.68,1.28-1.4,1.12l-27.02-6.13h0c-4.56-.95-10.09.21-10.09,9.06h0v62.7h12.86v-55.75c0-1.13,1.04-1.96,2.14-1.71l24.97,5.66h0s0,0,0,0c5.7,1.15,11.4-1.35,11.4-7.68h0v-20.01Z"/>
      <rect class="cls-9" x="189.11" y="298.31" width="17.12" height="24.76"/>
      <path class="cls-12" d="M117.4,83.1h116.11c4.68,0,8.49,3.8,8.49,8.49v181.56c0,4.98-4.04,9.03-9.03,9.03h-115.03c-4.98,0-9.03-4.04-9.03-9.03V91.59c0-4.68,3.8-8.49,8.49-8.49Z"/>
      <rect class="cls-7" x="147.84" y="241.98" width="57.81" height="31.76"/>
      <rect class="cls-12" x="166.56" y="253.14" width="20.38" height="9.44"/>
      <rect class="cls-12" x="152.69" y="255.5" width="9.55" height="4.72" rx="2.36" ry="2.36"/>
      <rect class="cls-12" x="191.64" y="255.5" width="9.55" height="4.72" rx="2.36" ry="2.36"/>
      <rect class="cls-4" x="146.84" y="100.02" width="59.87" height="8.36"/>
      <line class="cls-3" x1="242" y1="118.54" x2="110.21" y2="118.54"/>
    </g>
  </g>
  <path class="cls-15" d="M74.32,425.72c11.38,10.22,26.42,16.44,42.91,16.44h265.53c35.48,0,64.25-28.76,64.25-64.25V122.09c0-18.95-8.2-35.97-21.25-47.73-94.54,94.57-256.89,256.85-351.45,351.36Z"/>
  <g class="cls-13">
    <g>
      <path class="cls-16" d="M396.08,220.67l-104.61,11.49c-3.83.42-6.74,3.66-6.74,7.52v139.67c0,3.99,3.1,7.29,7.08,7.55l104.61,6.72c4.36.28,8.05-3.18,8.05-7.55v-157.88c0-4.5-3.91-8.01-8.39-7.52Z"/>
      <polygon class="cls-11" points="371.77 245.79 371.77 368.32 290.14 366.09 290.14 253.48 371.77 245.79"/>
      <g>
        <ellipse class="cls-6" cx="326.88" cy="307.12" rx="28.27" ry="40.79"/>
        <polygon class="cls-6" points="317.43 287.66 268.75 287.66 268.75 325.58 319.15 325.58 317.43 287.66"/>
        <ellipse class="cls-6" cx="260.64" cy="304.9" rx="16.23" ry="23.69"/>
        <ellipse class="cls-5" cx="258.14" cy="304.65" rx="5.61" ry="11.84"/>
        <path class="cls-2" d="M258.14,305.56s-58.15-7.06-58.96,53.33c-.86,63.6,37.62,90.94-12.54,136.91"/>
        <line class="cls-11" x1="397.34" y1="230.56" x2="397.34" y2="383.68"/>
        <g class="cls-14">
          <path class="cls-5" d="M281.42,286.06s3.69,2.37,3.69,14.53"/>
          <path class="cls-5" d="M301.33,286.06s3.69,2.37,3.69,14.53"/>
          <path class="cls-5" d="M293.95,326.95s6.64-16.57,0-40.6"/>
          <path class="cls-5" d="M284.92,315.1s0,8.91-3.5,11.99"/>
          <path class="cls-5" d="M305.02,315.1s.18,7.43-2.77,11.99"/>
        </g>
      </g>
    </g>
  </g>
  <g id="izcwcM">
    <path class="cls-10" d="M176.11,146.76c-2.6,9.42.97,15.73,7.66,21.92,9.94,9.19,17.73,13.43,16.57,29.13-.58,7.85-7.21,17.66-14.89,20.06-.16.05-.5.08-.45-.15,12.53-12.61,1.84-22.84,1.84-22.84-.46,2.18-3.05,2-3.05,2-.14-5.09-1.61-10.39-5.23-14.11-.2-.21-1.87-1.63-1.99-1.69-.65-.28-.41.4-.38.69.99,10.49-5.1,10.29-10.35,16.78-4.54,5.61-4.25,13.32.46,18.7-18.56-8.26-17.25-30.47-9.81-46.29.79.38.02,1.95,0,2.61-.14,5.67,1.68,11.6,7.04,14.25-2.68-13.2-1.79-28.96,8.75-38.62.49-.45,3.39-2.84,3.82-2.46Z"/>
  </g>
</svg>