<svg width="24" height="24" viewBox="0 0 24 24" fill="none" xmlns="http://www.w3.org/2000/svg">
<path d="M20.5977 11.0043C20.5578 10.826 20.4751 10.6601 20.3567 10.5209C20.2382 10.3817 20.0877 10.2735 19.9181 10.2056L15.1199 8.28651L16.1127 1.66683C16.1492 1.42912 16.1085 1.18599 15.9967 0.9731C15.8848 0.76021 15.7077 0.588763 15.4913 0.483908C15.2748 0.379053 15.0305 0.346308 14.7941 0.390476C14.5577 0.434644 14.3417 0.553401 14.1777 0.729327L3.67774 11.9793C3.55293 12.113 3.46259 12.2751 3.41453 12.4515C3.36648 12.628 3.36217 12.8135 3.40196 12.992C3.44176 13.1705 3.52447 13.3366 3.64294 13.4759C3.7614 13.6152 3.91204 13.7235 4.08181 13.7915L8.87993 15.7106L7.88712 22.3331C7.85068 22.5708 7.89136 22.8139 8.00321 23.0268C8.11506 23.2397 8.29219 23.4111 8.50861 23.516C8.72503 23.6209 8.96935 23.6536 9.20575 23.6094C9.44214 23.5653 9.65816 23.4465 9.82212 23.2706L20.3221 12.0206C20.4475 11.8865 20.5381 11.7238 20.5862 11.5467C20.6342 11.3696 20.6382 11.1834 20.5977 11.0043ZM10.6499 19.0828L11.2377 15.1668C11.2753 14.9162 11.2271 14.6602 11.1011 14.4404C10.975 14.2205 10.7784 14.0497 10.5431 13.9556L6.44431 12.3159L13.3499 4.91714L12.7621 8.83308C12.7246 9.08371 12.7727 9.33968 12.8988 9.55952C13.0249 9.77936 13.2215 9.95019 13.4568 10.0443L17.5556 11.684L10.6499 19.0828Z" fill="#181E34"/>
</svg>
