<svg width="24" height="24" viewBox="0 0 24 24" fill="none" xmlns="http://www.w3.org/2000/svg">
<path d="M12.1494 14.9629C12.9088 14.9629 13.5244 15.5785 13.5244 16.3379C13.5242 17.0971 12.9087 17.7129 12.1494 17.7129C11.3902 17.7129 10.7747 17.0971 10.7744 16.3379C10.7744 15.5785 11.39 14.9629 12.1494 14.9629Z" fill="#181E34"/>
<path d="M12.1494 6.2754C14.1435 6.2754 16.0244 7.72036 16.0244 9.80665C16.0242 11.5063 14.7754 12.7797 13.2344 13.1934C13.1052 13.6722 12.6691 14.0254 12.1494 14.0254C11.5283 14.0254 11.0247 13.5215 11.0244 12.9004V12.2129L11.0303 12.0977C11.088 11.5305 11.567 11.0879 12.1494 11.0879C13.1921 11.0879 13.7741 10.3775 13.7744 9.80665C13.7744 9.23576 13.1924 8.5254 12.1494 8.5254C11.1065 8.52541 10.5244 9.23576 10.5244 9.80665V10.1504C10.5242 10.7715 10.0206 11.2754 9.39943 11.2754C8.77827 11.2754 8.27468 10.7715 8.27443 10.1504V9.80665C8.27443 7.72036 10.1554 6.27541 12.1494 6.2754Z" fill="#181E34"/>
<path fill-rule="evenodd" clip-rule="evenodd" d="M12.6611 1.89845C15.1132 2.05852 17.4236 3.10521 19.1611 4.84279C20.8987 6.58036 21.9454 8.89073 22.1055 11.3428C22.2655 13.7948 21.5281 16.2213 20.0313 18.1699C18.5343 20.1187 16.3793 21.4561 13.9688 21.9336C11.7287 22.3773 9.41027 22.0492 7.38673 21.0127L4.34376 22.0274C4.01349 22.1374 3.65915 22.1542 3.32033 22.0742C2.9814 21.9942 2.67106 21.8215 2.42482 21.5752C2.17858 21.329 2.00578 21.0186 1.92579 20.6797C1.84585 20.3409 1.86258 19.9865 1.97267 19.6563V19.6543L2.99122 16.6152C1.95526 14.5919 1.62569 12.2739 2.06935 10.0342C2.54689 7.62382 3.88534 5.46957 5.834 3.97267C7.78267 2.47577 10.2091 1.73844 12.6611 1.89845ZM12.5147 4.14357C10.6075 4.01911 8.71976 4.59258 7.20411 5.75685C5.68861 6.9211 4.64875 8.59704 4.27736 10.4717C3.90601 12.3463 4.22841 14.2922 5.18556 15.9463C5.34719 16.2256 5.38168 16.5612 5.27931 16.8672L4.34474 19.6553L7.13771 18.7246L7.25392 18.6924C7.52631 18.633 7.81282 18.6764 8.05665 18.8174C9.71083 19.7748 11.6574 20.0979 13.5322 19.7266C15.407 19.3551 17.0828 18.3145 18.2471 16.7988C19.4111 15.2833 19.9848 13.3962 19.8604 11.4893C19.7359 9.58212 18.9217 7.78505 17.5703 6.43361C16.2189 5.08216 14.4218 4.26807 12.5147 4.14357Z" fill="#181E34"/>
</svg>
