<?xml version="1.0" encoding="UTF-8"?>
<svg id="Laag_1" data-name="Laag 1" xmlns="http://www.w3.org/2000/svg" xmlns:xlink="http://www.w3.org/1999/xlink" viewBox="0 0 500 500">
  <defs>
    <style>
      .cls-1, .cls-2, .cls-3, .cls-4, .cls-5, .cls-6, .cls-7, .cls-8 {
        fill: none;
      }

      .cls-9 {
        fill: #181e34;
      }

      .cls-10 {
        fill: #fed375;
      }

      .cls-2, .cls-3, .cls-11, .cls-4, .cls-5, .cls-6, .cls-7 {
        stroke-linecap: round;
        stroke-linejoin: round;
      }

      .cls-2, .cls-3, .cls-11, .cls-6 {
        stroke: #181e34;
      }

      .cls-2, .cls-11, .cls-7 {
        stroke-width: 2.44px;
      }

      .cls-3 {
        stroke-width: 3.39px;
      }

      .cls-11, .cls-12 {
        fill: #1ebcb2;
      }

      .cls-4, .cls-5, .cls-7 {
        stroke: #fff;
      }

      .cls-4, .cls-6 {
        stroke-width: 2px;
      }

      .cls-13 {
        clip-path: url(#clippath-11);
      }

      .cls-14 {
        clip-path: url(#clippath-10);
      }

      .cls-15 {
        clip-path: url(#clippath-13);
      }

      .cls-16 {
        clip-path: url(#clippath-12);
      }

      .cls-17 {
        clip-path: url(#clippath-1);
      }

      .cls-18 {
        clip-path: url(#clippath-3);
      }

      .cls-19 {
        clip-path: url(#clippath-4);
      }

      .cls-20 {
        clip-path: url(#clippath-2);
      }

      .cls-21 {
        clip-path: url(#clippath-7);
      }

      .cls-22 {
        clip-path: url(#clippath-6);
      }

      .cls-23 {
        clip-path: url(#clippath-9);
      }

      .cls-24 {
        clip-path: url(#clippath-8);
      }

      .cls-25 {
        clip-path: url(#clippath-5);
      }

      .cls-5 {
        stroke-width: 1.24px;
      }

      .cls-26 {
        fill: #f0a69f;
      }

      .cls-27 {
        fill: #fff;
      }

      .cls-28 {
        fill: #dedede;
      }

      .cls-29 {
        clip-path: url(#clippath);
      }

      .cls-8 {
        stroke: #f0a69f;
        stroke-miterlimit: 10;
        stroke-width: 11.11px;
      }
    </style>
    <clipPath id="clippath">
      <path class="cls-1" d="M78.59,51.77h313.64c16.1,0,29.17,13.07,29.17,29.17v156.49c0,16.1-13.07,29.17-29.17,29.17H107.76c-16.1,0-29.17-13.07-29.17-29.17V51.77h0Z"/>
    </clipPath>
    <clipPath id="clippath-1">
      <polygon class="cls-1" points="365.98 83.32 468.29 93.28 434.44 131.36 331.41 114.31 365.98 83.32"/>
    </clipPath>
    <clipPath id="clippath-2">
      <polygon class="cls-1" points="256.24 70.72 343.81 79.24 314.84 111.83 226.66 97.24 256.24 70.72"/>
    </clipPath>
    <clipPath id="clippath-3">
      <polygon class="cls-1" points="322.65 107.26 431.35 117.84 395.39 158.3 285.92 140.18 322.65 107.26"/>
    </clipPath>
    <clipPath id="clippath-4">
      <polygon class="cls-1" points="206.06 93.86 299.1 102.92 268.32 137.55 174.62 122.04 206.06 93.86"/>
    </clipPath>
    <clipPath id="clippath-5">
      <polygon class="cls-1" points="274.67 126.33 391.51 137.71 352.85 181.19 235.2 161.72 274.67 126.33"/>
    </clipPath>
    <clipPath id="clippath-6">
      <polygon class="cls-1" points="149.35 111.94 249.36 121.67 216.27 158.89 115.57 142.23 149.35 111.94"/>
    </clipPath>
    <clipPath id="clippath-7">
      <polygon class="cls-1" points="225.19 153.67 349.33 165.75 308.26 211.95 183.25 191.27 225.19 153.67"/>
    </clipPath>
    <clipPath id="clippath-8">
      <polygon class="cls-1" points="92.04 138.37 198.29 148.71 163.14 188.26 56.14 170.55 92.04 138.37"/>
    </clipPath>
    <clipPath id="clippath-9">
      <polygon class="cls-1" points="172.79 175.5 309.14 188.77 264.03 239.52 126.72 216.8 172.79 175.5"/>
    </clipPath>
    <clipPath id="clippath-10">
      <polygon class="cls-1" points="26.54 158.7 143.25 170.06 104.64 213.49 -12.88 194.04 26.54 158.7"/>
    </clipPath>
    <clipPath id="clippath-11">
      <polygon class="cls-1" points="115.04 207.39 259.91 221.49 211.98 275.41 66.1 251.27 115.04 207.39"/>
    </clipPath>
    <clipPath id="clippath-12">
      <polygon class="cls-1" points="-40.34 189.54 83.66 201.61 42.63 247.76 -82.23 227.1 -40.34 189.54"/>
    </clipPath>
    <clipPath id="clippath-13">
      <path class="cls-1" d="M52.98,285.57h214.7c13.83,0,25.07,11.23,25.07,25.07v112.53c0,13.83-11.23,25.07-25.07,25.07H78.05c-13.83,0-25.07-11.23-25.07-25.07v-137.6h0Z"/>
    </clipPath>
  </defs>
  <g>
    <path class="cls-12" d="M78.59,51.77h312.7c16.62,0,30.11,13.49,30.11,30.11v154.6c0,16.62-13.49,30.11-30.11,30.11H108.71c-16.62,0-30.11-13.49-30.11-30.11V51.77h0Z"/>
    <path class="cls-28" d="M392.57,51.77H78.59v44.61h342.81v-15.78c0-15.93-12.91-28.84-28.84-28.84Z"/>
    <path class="cls-12" d="M102.66,93.79s5.14.73,6.98-1.83c2.08-2.91,1.58-5.16-.56-7s3.19-6.9-1.02-11.15c-6.95-7.03-16.09-1.22-13.34,8.98,0,0-3.67,1.71-3.67,4.62,0,4.86,3.64,8.49,10.06,6.72"/>
    <path class="cls-12" d="M121.52,91.02s3.93.54,5.33-1.35c1.59-2.14,1.2-3.79-.43-5.14-1.63-1.35,2.43-5.07-.78-8.19-5.31-5.16-12.29-.97-11.15,5.14,0,0-1.83,2.71-1.83,4.84,0,3.57,2.78,6.23,7.68,4.94"/>
    <rect class="cls-12" x="100.42" y="88.67" width="2.78" height="10.24"/>
    <rect class="cls-12" x="119.61" y="88.67" width="1.3" height="10.24"/>
    <path class="cls-27" d="M261.37,85.11l-93.36,1.34s3.18-1.68,7.04-2.68c0,0,1.34-3.52,4.86-3.69s5.87,2.18,5.87,2.18c0,0,3.02-2.85,7.37-2.85,0,0,0-5.2,3.69-6.37s4.63,0,4.63,0c0,0,.06-5.2,5.93-5.2s7.29,3.8,7.29,3.8c0,0,1.93-1.29,5.11-.95,5.59.59,5.87,3.69,5.87,3.69l4.06,2.77s1.13-3.1,5.16-2.77c4.02.34,6.03,4.69,6.03,4.69,0,0,4.86-.84,7.21.67s2.85,2.85,2.85,2.85c0,0,7.37-.5,10.39,2.51Z"/>
    <g class="cls-29">
      <g>
        <g>
          <g>
            <g>
              <polygon class="cls-27" points="468.29 93.28 468.29 96.11 435.46 133.29 331.41 116.06 331.41 114.31 468.29 93.28"/>
              <polygon class="cls-9" points="468.98 98.57 468.98 101.4 437.92 138.83 332.1 120.33 332.1 118.58 436.54 136.42 468.98 98.57"/>
              <polygon class="cls-9" points="365.98 83.32 468.29 93.28 434.44 131.36 331.41 114.31 365.98 83.32"/>
              <g class="cls-17">
                <g>
                  <line class="cls-5" x1="349.25" y1="97.43" x2="454.57" y2="110.52"/>
                  <line class="cls-5" x1="446.77" y1="90.76" x2="411.02" y2="127.49"/>
                  <line class="cls-5" x1="425.02" y1="89" x2="390.12" y2="124.2"/>
                  <line class="cls-5" x1="404.53" y1="86.87" x2="370.31" y2="121.37"/>
                  <line class="cls-5" x1="383.32" y1="84.92" x2="350.49" y2="117.93"/>
                </g>
              </g>
              <polyline class="cls-9" points="466.81 102.52 466.81 134.33 464.52 135.83 464.52 106.61 468.17 102.32"/>
              <polyline class="cls-9" points="448.12 123.27 448.12 143.23 445.83 144.73 445.83 125.72"/>
              <polyline class="cls-9" points="445.83 144.73 443.08 144.23 443.08 128.93 448.12 124.62"/>
              <polygon class="cls-9" points="339.46 121.42 339.46 129.43 342.21 129.93 344.5 128.43 344.5 122.17 339.46 121.42"/>
              <polyline class="cls-9" points="464.52 135.83 461.31 135.33 461.31 108.02 466.81 103.86"/>
            </g>
            <g>
              <polygon class="cls-27" points="343.81 79.24 343.81 81.66 315.72 113.49 226.66 98.74 226.66 97.24 343.81 79.24"/>
              <polygon class="cls-9" points="344.4 83.77 344.4 86.19 317.82 118.22 227.25 102.39 227.25 100.89 316.64 116.16 344.4 83.77"/>
              <polygon class="cls-9" points="256.24 70.72 343.81 79.24 314.84 111.83 226.66 97.24 256.24 70.72"/>
              <g class="cls-20">
                <g>
                  <line class="cls-5" x1="241.93" y1="82.79" x2="332.07" y2="94"/>
                  <line class="cls-5" x1="325.4" y1="77.08" x2="294.8" y2="108.52"/>
                  <line class="cls-5" x1="306.78" y1="75.58" x2="276.9" y2="105.7"/>
                  <line class="cls-5" x1="289.24" y1="73.75" x2="259.95" y2="103.28"/>
                  <line class="cls-5" x1="271.08" y1="72.08" x2="242.98" y2="100.34"/>
                </g>
              </g>
              <polyline class="cls-9" points="342.54 87.15 342.54 114.37 340.58 115.66 340.58 90.65 343.71 86.97"/>
              <polyline class="cls-9" points="326.55 104.91 326.55 121.99 324.59 123.27 324.59 107"/>
              <polyline class="cls-9" points="324.59 123.27 322.24 122.85 322.24 109.75 326.55 106.07"/>
              <polygon class="cls-9" points="233.54 103.33 233.54 110.18 235.9 110.6 237.86 109.32 237.86 103.97 233.54 103.33"/>
              <polyline class="cls-9" points="340.58 115.66 337.84 115.23 337.84 91.86 342.54 88.29"/>
            </g>
          </g>
          <g>
            <polygon class="cls-27" points="431.35 117.84 431.35 120.84 396.48 160.35 285.92 142.04 285.92 140.18 431.35 117.84"/>
            <polygon class="cls-9" points="432.08 123.46 432.08 126.47 399.09 166.23 286.65 146.58 286.65 144.72 397.62 163.67 432.08 123.46"/>
            <polygon class="cls-9" points="322.65 107.26 431.35 117.84 395.39 158.3 285.92 140.18 322.65 107.26"/>
            <g class="cls-18">
              <g>
                <line class="cls-5" x1="304.88" y1="122.24" x2="416.78" y2="136.15"/>
                <line class="cls-5" x1="408.49" y1="115.16" x2="370.51" y2="154.18"/>
                <line class="cls-5" x1="385.38" y1="113.29" x2="348.29" y2="150.69"/>
                <line class="cls-5" x1="363.61" y1="111.03" x2="327.25" y2="147.68"/>
                <line class="cls-5" x1="341.07" y1="108.95" x2="306.19" y2="144.03"/>
              </g>
            </g>
            <polyline class="cls-9" points="429.78 127.65 429.78 161.45 427.34 163.04 427.34 132 431.23 127.44"/>
            <polyline class="cls-9" points="409.93 149.7 409.93 170.91 407.49 172.5 407.49 152.3"/>
            <polyline class="cls-9" points="407.49 172.5 404.57 171.97 404.57 155.71 409.93 151.14"/>
            <polygon class="cls-9" points="294.47 147.74 294.47 156.24 297.39 156.77 299.83 155.18 299.83 148.54 294.47 147.74"/>
            <polyline class="cls-9" points="427.34 163.04 423.93 162.51 423.93 133.5 429.78 129.08"/>
          </g>
          <g>
            <polygon class="cls-27" points="299.1 102.92 299.1 105.49 269.25 139.31 174.62 123.63 174.62 122.04 299.1 102.92"/>
            <polygon class="cls-9" points="299.72 107.73 299.72 110.31 271.48 144.34 175.25 127.52 175.25 125.93 270.23 142.15 299.72 107.73"/>
            <polygon class="cls-9" points="206.06 93.86 299.1 102.92 268.32 137.55 174.62 122.04 206.06 93.86"/>
            <g class="cls-19">
              <g>
                <line class="cls-5" x1="190.85" y1="106.69" x2="286.62" y2="118.6"/>
                <line class="cls-5" x1="279.53" y1="100.63" x2="247.02" y2="134.02"/>
                <line class="cls-5" x1="259.75" y1="99.03" x2="228.01" y2="131.03"/>
                <line class="cls-5" x1="241.11" y1="97.09" x2="209.99" y2="128.46"/>
                <line class="cls-5" x1="221.83" y1="95.31" x2="191.97" y2="125.34"/>
              </g>
            </g>
            <polyline class="cls-9" points="297.75 111.32 297.75 140.24 295.67 141.61 295.67 115.04 298.99 111.14"/>
            <polyline class="cls-9" points="280.76 130.19 280.76 148.34 278.68 149.7 278.68 132.42"/>
            <polyline class="cls-9" points="278.68 149.7 276.17 149.25 276.17 135.33 280.76 131.42"/>
            <polygon class="cls-9" points="181.94 128.51 181.94 135.79 184.44 136.24 186.53 134.88 186.53 129.19 181.94 128.51"/>
            <polyline class="cls-9" points="295.67 141.61 292.75 141.15 292.75 116.32 297.75 112.54"/>
          </g>
        </g>
        <g>
          <g>
            <g>
              <polygon class="cls-27" points="391.51 137.71 391.51 140.94 354.02 183.4 235.2 163.72 235.2 161.72 391.51 137.71"/>
              <polygon class="cls-9" points="392.29 143.75 392.29 146.98 356.83 189.72 235.98 168.6 235.98 166.6 355.25 186.97 392.29 143.75"/>
              <polygon class="cls-9" points="274.67 126.33 391.51 137.71 352.85 181.19 235.2 161.72 274.67 126.33"/>
              <g class="cls-25">
                <g>
                  <line class="cls-5" x1="255.57" y1="142.44" x2="375.84" y2="157.39"/>
                  <line class="cls-5" x1="366.94" y1="134.83" x2="326.11" y2="176.77"/>
                  <line class="cls-5" x1="342.09" y1="132.82" x2="302.23" y2="173.01"/>
                  <line class="cls-5" x1="318.69" y1="130.39" x2="279.61" y2="169.78"/>
                  <line class="cls-5" x1="294.47" y1="128.16" x2="256.98" y2="165.86"/>
                </g>
              </g>
              <polyline class="cls-9" points="389.82 148.26 389.82 184.58 387.2 186.29 387.2 152.93 391.37 148.03"/>
              <polyline class="cls-9" points="368.48 171.96 368.48 198.18 365.86 199.89 365.86 174.75"/>
              <polyline class="cls-9" points="365.86 199.89 362.72 199.32 362.72 178.41 368.48 173.5"/>
              <polygon class="cls-9" points="244.38 169.84 244.38 178.98 247.52 179.55 250.14 177.84 250.14 170.7 244.38 169.84"/>
              <polyline class="cls-9" points="387.2 186.29 383.53 185.72 383.53 154.54 389.82 149.79"/>
            </g>
            <g>
              <polygon class="cls-27" points="249.36 121.67 249.36 124.44 217.27 160.78 115.57 143.94 115.57 142.23 249.36 121.67"/>
              <polygon class="cls-9" points="250.03 126.84 250.03 129.61 219.67 166.19 116.24 148.11 116.24 146.4 218.32 163.84 250.03 126.84"/>
              <polygon class="cls-9" points="149.35 111.94 249.36 121.67 216.27 158.89 115.57 142.23 149.35 111.94"/>
              <g class="cls-22">
                <g>
                  <line class="cls-5" x1="133" y1="125.72" x2="235.95" y2="138.52"/>
                  <line class="cls-5" x1="228.33" y1="119.21" x2="193.38" y2="155.1"/>
                  <line class="cls-5" x1="207.06" y1="117.49" x2="172.94" y2="151.89"/>
                  <line class="cls-5" x1="187.03" y1="115.41" x2="153.58" y2="149.12"/>
                  <line class="cls-5" x1="166.3" y1="113.5" x2="134.21" y2="145.77"/>
                </g>
              </g>
              <polyline class="cls-9" points="247.91 130.7 247.91 161.79 245.67 163.26 245.67 134.7 249.24 130.5"/>
              <polyline class="cls-9" points="229.65 150.99 229.65 170.49 227.4 171.96 227.4 153.38"/>
              <polyline class="cls-9" points="227.4 171.96 224.72 171.47 224.72 156.51 229.65 152.31"/>
              <polygon class="cls-9" points="123.43 149.18 123.43 157 126.12 157.49 128.36 156.02 128.36 149.91 123.43 149.18"/>
              <polyline class="cls-9" points="245.67 163.26 242.53 162.77 242.53 136.08 247.91 132.01"/>
            </g>
          </g>
          <g>
            <polygon class="cls-27" points="349.33 165.75 349.33 169.18 309.5 214.3 183.25 193.39 183.25 191.27 349.33 165.75"/>
            <polygon class="cls-9" points="350.16 172.17 350.16 175.6 312.48 221.01 184.08 198.57 184.08 196.45 310.81 218.09 350.16 172.17"/>
            <polygon class="cls-9" points="225.19 153.67 349.33 165.75 308.26 211.95 183.25 191.27 225.19 153.67"/>
            <g class="cls-21">
              <g>
                <line class="cls-5" x1="204.89" y1="170.78" x2="332.68" y2="186.67"/>
                <line class="cls-5" x1="323.22" y1="162.69" x2="279.84" y2="207.25"/>
                <line class="cls-5" x1="296.82" y1="160.56" x2="254.47" y2="203.26"/>
                <line class="cls-5" x1="271.96" y1="157.97" x2="230.44" y2="199.83"/>
                <line class="cls-5" x1="246.23" y1="155.6" x2="206.39" y2="195.66"/>
              </g>
            </g>
            <polyline class="cls-9" points="347.53 176.96 347.53 215.55 344.75 217.37 344.75 181.93 349.18 176.71"/>
            <polyline class="cls-9" points="324.86 202.14 324.86 230.54 322.08 232.36 322.08 205.11"/>
            <polyline class="cls-9" points="322.08 232.36 318.74 231.75 318.74 209 324.86 203.78"/>
            <polygon class="cls-9" points="193.01 199.89 193.01 209.61 196.35 210.21 199.13 208.39 199.13 200.81 193.01 199.89"/>
            <polyline class="cls-9" points="344.75 217.37 340.85 216.77 340.85 183.63 347.53 178.58"/>
          </g>
          <g>
            <polygon class="cls-27" points="198.29 148.71 198.29 151.65 164.2 190.27 56.14 172.37 56.14 170.55 198.29 148.71"/>
            <polygon class="cls-9" points="199.01 154.21 199.01 157.15 166.76 196.01 56.86 176.8 56.86 174.99 165.32 193.51 199.01 154.21"/>
            <polygon class="cls-9" points="92.04 138.37 198.29 148.71 163.14 188.26 56.14 170.55 92.04 138.37"/>
            <g class="cls-24">
              <g>
                <line class="cls-5" x1="74.67" y1="153.02" x2="184.05" y2="166.62"/>
                <line class="cls-5" x1="175.95" y1="146.09" x2="138.82" y2="184.23"/>
                <line class="cls-5" x1="153.35" y1="144.27" x2="117.11" y2="180.82"/>
                <line class="cls-5" x1="132.08" y1="142.06" x2="96.54" y2="177.88"/>
                <line class="cls-5" x1="110.05" y1="140.03" x2="75.95" y2="174.31"/>
              </g>
            </g>
            <polyline class="cls-9" points="196.76 158.31 196.76 191.34 194.37 192.9 194.37 162.56 198.17 158.1"/>
            <polyline class="cls-9" points="177.35 179.86 177.35 200.58 174.97 202.14 174.97 182.4"/>
            <polyline class="cls-9" points="174.97 202.14 172.11 201.62 172.11 185.73 177.35 181.26"/>
            <polygon class="cls-9" points="64.5 177.94 64.5 186.25 67.36 186.77 69.74 185.21 69.74 178.72 64.5 177.94"/>
            <polyline class="cls-9" points="194.37 192.9 191.04 192.38 191.04 164.02 196.76 159.7"/>
          </g>
        </g>
        <g>
          <g>
            <polygon class="cls-27" points="309.14 188.77 309.14 192.54 265.39 242.09 126.72 219.13 126.72 216.8 309.14 188.77"/>
            <polygon class="cls-9" points="310.05 195.82 310.05 199.59 268.67 249.47 127.64 224.82 127.64 222.48 266.83 246.26 310.05 195.82"/>
            <polygon class="cls-9" points="172.79 175.5 309.14 188.77 264.03 239.52 126.72 216.8 172.79 175.5"/>
            <g class="cls-23">
              <g>
                <line class="cls-5" x1="150.5" y1="194.29" x2="290.86" y2="211.74"/>
                <line class="cls-5" x1="280.46" y1="185.41" x2="232.82" y2="234.35"/>
                <line class="cls-5" x1="251.47" y1="183.06" x2="204.96" y2="229.97"/>
                <line class="cls-5" x1="224.16" y1="180.23" x2="178.56" y2="226.2"/>
                <line class="cls-5" x1="195.9" y1="177.62" x2="152.14" y2="221.62"/>
              </g>
            </g>
            <polyline class="cls-9" points="307.16 201.08 307.16 243.47 304.11 245.47 304.11 206.54 308.98 200.81"/>
            <polyline class="cls-9" points="282.26 228.74 282.26 258.7 279.21 260.7 279.21 232"/>
            <polyline class="cls-9" points="279.21 260.7 275.54 260.04 275.54 236.27 282.26 230.54"/>
            <polygon class="cls-9" points="137.44 226.27 137.44 236.94 141.11 237.6 144.17 235.61 144.17 227.27 137.44 226.27"/>
            <polyline class="cls-9" points="304.11 245.47 299.83 244.8 299.83 208.41 307.16 202.87"/>
          </g>
          <g>
            <polygon class="cls-27" points="143.25 170.06 143.25 173.28 105.8 215.7 -12.88 196.04 -12.88 194.04 143.25 170.06"/>
            <polygon class="cls-9" points="144.03 176.09 144.03 179.32 108.61 222.01 -12.1 200.91 -12.1 198.91 107.03 219.26 144.03 176.09"/>
            <polygon class="cls-9" points="26.54 158.7 143.25 170.06 104.64 213.49 -12.88 194.04 26.54 158.7"/>
            <g class="cls-14">
              <g>
                <line class="cls-5" x1="7.47" y1="174.78" x2="127.6" y2="189.72"/>
                <line class="cls-5" x1="118.71" y1="167.18" x2="77.93" y2="209.07"/>
                <line class="cls-5" x1="93.89" y1="165.17" x2="54.08" y2="205.32"/>
                <line class="cls-5" x1="70.52" y1="162.74" x2="31.48" y2="202.09"/>
                <line class="cls-5" x1="46.32" y1="160.52" x2="8.87" y2="198.18"/>
              </g>
            </g>
            <polyline class="cls-9" points="141.56 180.59 141.56 216.88 138.94 218.59 138.94 185.26 143.11 180.36"/>
            <polyline class="cls-9" points="120.25 204.27 120.25 227.03 117.63 228.74 117.63 207.05"/>
            <polyline class="cls-9" points="117.63 228.74 114.49 228.17 114.49 210.71 120.25 205.81"/>
            <polygon class="cls-9" points="-3.71 202.16 -3.71 211.28 -.57 211.86 2.05 210.14 2.05 203.01 -3.71 202.16"/>
            <polyline class="cls-9" points="138.94 218.59 135.28 218.02 135.28 186.87 141.56 182.12"/>
          </g>
        </g>
        <g>
          <polygon class="cls-27" points="259.91 221.49 259.91 225.5 213.43 278.15 66.1 253.75 66.1 251.27 259.91 221.49"/>
          <polygon class="cls-9" points="260.89 228.99 260.89 233 216.91 285.99 67.07 259.79 67.07 257.32 214.96 282.58 260.89 228.99"/>
          <polygon class="cls-9" points="115.04 207.39 259.91 221.49 211.98 275.41 66.1 251.27 115.04 207.39"/>
          <g class="cls-13">
            <g>
              <line class="cls-5" x1="91.36" y1="227.36" x2="240.49" y2="245.9"/>
              <line class="cls-5" x1="229.45" y1="217.92" x2="178.83" y2="269.93"/>
              <line class="cls-5" x1="198.64" y1="215.43" x2="149.22" y2="265.27"/>
              <line class="cls-5" x1="169.63" y1="212.42" x2="121.17" y2="261.26"/>
              <line class="cls-5" x1="139.6" y1="209.65" x2="93.11" y2="256.4"/>
            </g>
          </g>
          <polyline class="cls-9" points="257.82 234.58 257.82 279.61 254.57 281.74 254.57 240.37 259.74 234.29"/>
          <polyline class="cls-9" points="231.36 263.96 231.36 292.22 228.11 294.34 228.11 267.42"/>
          <polyline class="cls-9" points="228.11 294.34 224.22 293.63 224.22 271.97 231.36 265.88"/>
          <polygon class="cls-9" points="77.49 261.34 77.49 272.67 81.39 273.38 84.63 271.26 84.63 262.41 77.49 261.34"/>
          <polyline class="cls-9" points="254.57 281.74 250.03 281.03 250.03 242.37 257.82 236.47"/>
        </g>
        <g>
          <polygon class="cls-27" points="83.66 201.61 83.66 205.04 43.88 250.1 -82.23 229.22 -82.23 227.1 83.66 201.61"/>
          <polygon class="cls-9" points="84.49 208.03 84.49 211.46 46.86 256.81 -81.39 234.39 -81.39 232.27 45.18 253.89 84.49 208.03"/>
          <polygon class="cls-9" points="-40.34 189.54 83.66 201.61 42.63 247.76 -82.23 227.1 -40.34 189.54"/>
          <g class="cls-16">
            <g>
              <line class="cls-5" x1="-60.61" y1="206.64" x2="67.03" y2="222.51"/>
              <line class="cls-5" x1="57.58" y1="198.56" x2="14.25" y2="243.07"/>
              <line class="cls-5" x1="31.22" y1="196.43" x2="-11.08" y2="239.08"/>
              <line class="cls-5" x1="6.38" y1="193.84" x2="-35.09" y2="235.65"/>
            </g>
          </g>
          <polyline class="cls-9" points="81.86 212.81 81.86 251.36 79.09 253.18 79.09 217.77 83.51 212.56"/>
          <polyline class="cls-9" points="59.22 237.96 59.22 262.15 56.44 263.96 56.44 240.92"/>
          <polyline class="cls-9" points="56.44 263.96 53.11 263.36 53.11 244.81 59.22 239.6"/>
          <polyline class="cls-9" points="79.09 253.18 75.2 252.57 75.2 219.48 81.86 214.43"/>
        </g>
      </g>
      <path class="cls-27" d="M339.44,242.12s2.65-5.09,5.6-4.38-2.8,5.3-2.8,5.3c0,0,5.86,1.02,5.65,2.95s-3.36,1.22-5.8,0c0,0,2.24,3.77.1,4.89s-4.38-.81-3.56-4.79c0,0-2.04,2.44-5.19.92-3.16-1.53,3.36-3.36,3.36-3.36,0,0-5.4-1.02-2.55-4.68s5.19,3.16,5.19,3.16Z"/>
      <path class="cls-27" d="M355.93,236s-.9-3.64.86-4.57c1.76-.93.91,3.81.91,3.81,0,0,3.32-2.03,4.05-.99.74,1.04-1.12,2.05-2.85,2.51,0,0,2.73.88,2.16,2.36s-2.5,1.49-3.82-.81c0,0,.06,2.08-2.16,2.69s.2-3.1.2-3.1c0,0-3.09,1.83-3.27-1.2-.18-3.03,3.91-.69,3.91-.69Z"/>
    </g>
  </g>
  <g>
    <polygon class="cls-10" points="374.77 322.26 374.77 414.22 410.28 434.86 445.79 414.22 445.08 341.97 374.77 322.26"/>
    <path class="cls-10" d="M374.77,322.26l70.31,40.39v-47.04s-15.76,5.91-34.8-3.33c-19.04-9.24-35.51,9.98-35.51,9.98Z"/>
    <polyline class="cls-2" points="374.77 414.22 410.28 396.07 445.79 414.22"/>
    <line class="cls-2" x1="333.1" y1="327.5" x2="374.77" y2="327.5"/>
    <g>
      <polygon class="cls-2" points="374.77 414.22 374.77 220.13 410.07 201.95 445.79 220.13 445.79 414.22 410.28 434.86 374.77 414.22"/>
      <polyline class="cls-2" points="374.77 220.13 410.28 240.05 445.79 220.13"/>
    </g>
    <polyline class="cls-7" points="440.35 327.5 410.28 344.92 382.6 327.5"/>
    <line class="cls-11" x1="410.28" y1="201.95" x2="410.28" y2="434.86"/>
  </g>
  <g class="cls-15">
    <path class="cls-28" d="M52.98,285.57h214.7c13.83,0,25.07,11.23,25.07,25.07v112.53c0,13.83-11.23,25.07-25.07,25.07H78.05c-13.83,0-25.07-11.23-25.07-25.07v-137.6h0Z"/>
    <g>
      <polyline class="cls-6" points="155.9 557.12 147.57 554.49 152.28 534.39 138.69 521.33 150.86 509.06 138.69 497.91 149.63 487.4 138.69 473.38 148.18 461.62 138.69 450.6 147.3 441.2 138.69 430.21 145.91 421.4 138.69 414.6 145.6 407.74 138.69 402.02 145.3 394.84 138.69 389.43 145.03 382.89 138.69 376.37 144.74 370.32 138.69 365.38 144.49 359.48 138.69 351.04 144.11 343.08 138.69 335.27 143.75 327.31 138.69 320.94 143.43 313.6 138.69 301.66 142.94 292.26 145.91 421.4 152.28 534.39 178.62 728.94 175.43 728.94 138.69 658.43 169.08 658.43 138.69 617.16 163.49 617.16 138.69 578.77 158.29 578.77 147.57 554.49 138.69 534.39 152.28 534.39"/>
      <polyline class="cls-6" points="138.69 314.4 172.09 314.4 143.16 301.97 138.69 301.97"/>
      <polyline class="cls-6" points="143.43 313.6 155.39 307.23 155.39 314.4"/>
      <polyline class="cls-6" points="167.95 370.39 167.95 364.48 156.48 370.48 156.48 362.03 144.74 370.32 196.14 370.48 144.49 359.48"/>
      <polyline class="cls-6" points="158.66 421.53 145.6 407.74 181.33 421.77 145.91 421.4 158.66 412.87 158.66 421.53 166.16 415.81"/>
      <line class="cls-6" x1="172.09" y1="314.4" x2="172.09" y2="344.83"/>
      <line class="cls-6" x1="196.14" y1="370.48" x2="196.14" y2="404.09"/>
      <line class="cls-6" x1="181.33" y1="421.77" x2="181.33" y2="454.74"/>
      <polyline class="cls-6" points="121.48 557.12 129.81 554.49 125.1 534.39 138.69 521.33 126.53 509.06 138.69 497.91 127.75 487.4 138.69 473.38 129.2 461.62 138.69 450.6 130.08 441.2 138.69 430.21 131.47 421.4 138.69 414.6 131.78 407.74 138.69 402.02 132.08 394.84 138.69 389.43 132.36 382.89 138.69 376.37 132.65 370.32 138.69 365.38 132.89 359.48 138.69 351.04 133.27 343.08 138.69 335.27 133.64 327.31 138.69 320.94 133.95 313.6 138.69 301.66 134.44 292.26 131.47 421.4 125.1 534.39 98.76 728.94 101.95 728.94 138.69 658.43 108.31 658.43 138.69 617.16 113.89 617.16 138.69 578.77 119.09 578.77 129.81 554.49 138.69 534.39 125.1 534.39"/>
      <polyline class="cls-6" points="138.69 314.4 105.29 314.4 134.22 301.97 138.69 301.97"/>
      <polyline class="cls-6" points="133.95 313.6 121.99 307.23 121.99 314.4"/>
      <polyline class="cls-6" points="109.43 370.39 109.43 364.48 120.9 370.48 120.9 362.03 132.65 370.32 81.24 370.48 132.89 359.48"/>
      <polyline class="cls-6" points="118.73 421.53 131.78 407.74 96.05 421.77 131.47 421.4 118.73 412.87 118.73 421.53 111.22 415.81"/>
      <line class="cls-6" x1="105.29" y1="314.4" x2="105.29" y2="344.83"/>
      <line class="cls-6" x1="81.24" y1="370.48" x2="81.24" y2="404.09"/>
      <line class="cls-6" x1="96.05" y1="421.77" x2="96.05" y2="454.74"/>
      <line class="cls-6" x1="142.94" y1="292.26" x2="134.44" y2="292.26"/>
    </g>
    <path class="cls-4" d="M44.63,305.37s35.89,49.01,60.66,39.46"/>
    <path class="cls-4" d="M14.3,363.4s42.16,50.25,66.93,40.69"/>
    <path class="cls-4" d="M35.28,288.55s31.06,126.21,159.39,115.54c0,0,45.85,38.97,102.89,12.99"/>
    <path class="cls-4" d="M12.7,230.46s31.06,126.21,159.39,115.54c0,0,64.51,43.36,127.83,24.48"/>
  </g>
  <g>
    <rect class="cls-26" x="258.41" y="283.24" width="68.01" height="67.65" rx="2.61" ry="2.61"/>
    <path class="cls-8" d="M272.3,304.08c.26-1.03,0-26.58,0-26.58,0-11.05,9-20.01,20.11-20.01s20.11,8.96,20.11,20.01v31.49"/>
    <ellipse class="cls-9" cx="292.41" cy="311.71" rx="6.68" ry="6.65"/>
    <rect class="cls-9" x="288.13" y="311.71" width="8.56" height="17.37"/>
  </g>
  <g>
    <circle class="cls-26" cx="292.48" cy="397.64" r="33.94"/>
    <g>
      <path class="cls-3" d="M298.56,392.16c-2.2-2.2-5.24-3.57-8.59-3.57-6.7,0-12.14,5.43-12.14,12.14s5.43,12.14,12.14,12.14c3.36,0,6.4-1.36,8.59-3.57"/>
      <g>
        <line class="cls-3" x1="289.59" y1="396.86" x2="273.52" y2="396.86"/>
        <line class="cls-3" x1="289.59" y1="404.59" x2="273.52" y2="404.59"/>
      </g>
    </g>
    <g>
      <line class="cls-3" x1="303.97" y1="379.31" x2="303.97" y2="389.12"/>
      <line class="cls-3" x1="308.88" y1="384.22" x2="299.07" y2="384.22"/>
    </g>
  </g>
  <polygon class="cls-27" points="424.47 349.3 416.7 381.7 427.19 374.78 423.35 390.16 431.48 384.82 428.76 397.64 440.15 369.88 432.5 374.93 439.05 355.16 429.91 361.2 436 341.66 424.47 349.3"/>
</svg>