<?xml version="1.0" encoding="UTF-8"?>
<svg id="Laag_1" data-name="Laag 1" xmlns="http://www.w3.org/2000/svg" xmlns:xlink="http://www.w3.org/1999/xlink" viewBox="0 0 500 500">
  <defs>
    <style>
      .cls-1, .cls-2, .cls-3 {
        fill: none;
      }

      .cls-4 {
        fill: #181e34;
      }

      .cls-5 {
        fill: #fed375;
      }

      .cls-2 {
        stroke: #181e34;
        stroke-width: 3px;
      }

      .cls-2, .cls-3, .cls-6 {
        stroke-linecap: round;
        stroke-linejoin: round;
      }

      .cls-7 {
        clip-path: url(#clippath-1);
      }

      .cls-8 {
        clip-path: url(#clippath-4);
      }

      .cls-9 {
        clip-path: url(#clippath-2);
      }

      .cls-3 {
        stroke: #fff;
        stroke-width: 1.61px;
      }

      .cls-10, .cls-6 {
        fill: #fff;
      }

      .cls-11 {
        fill: #1ebcb2;
      }

      .cls-12 {
        fill: #dedede;
      }

      .cls-6 {
        stroke: #dedede;
        stroke-width: 3.67px;
      }
    </style>
    <clipPath id="clippath-1">
      <path class="cls-1" d="M100.29,52.87h259.16c22.55,0,40.86,18.31,40.86,40.86v106.29c0,22.55-18.31,40.86-40.86,40.86h-218.3c-22.55,0-40.86-18.31-40.86-40.86V52.87h0Z"/>
    </clipPath>
    <clipPath id="clippath-2">
      <path class="cls-1" d="M100.29,52.87h261.44c21.29,0,38.58,17.29,38.58,38.58v110.86c0,21.29-17.29,38.58-38.58,38.58h-222.86c-21.29,0-38.58-17.29-38.58-38.58V52.87h0Z"/>
    </clipPath>
    <clipPath id="clippath-4">
      <path class="cls-1" d="M100.29,52.87h261.47c21.27,0,38.55,17.27,38.55,38.55v110.92c0,21.27-17.27,38.55-38.55,38.55h-222.93c-21.27,0-38.55-17.27-38.55-38.55V52.87h0Z"/>
    </clipPath>
  </defs>
  <path class="cls-5" d="M100.29,52.87h226.04c40.83,0,73.98,33.15,73.98,73.98v40.05c0,40.83-33.15,73.98-73.98,73.98h-152.06c-40.83,0-73.98-33.15-73.98-73.98V52.87h0Z"/>
  <g class="cls-7">
    <path class="cls-12" d="M202.96,36.9c-3.74.53-145.67,151.54-145.67,151.54l338.29,71.5,116.32-219.83-308.94-3.2Z"/>
  </g>
  <g class="cls-9">
    <g>
      <line class="cls-3" x1="241.38" y1="42.23" x2="84.51" y2="222.58"/>
      <line class="cls-3" x1="296.89" y1="45" x2="155.47" y2="214.05"/>
      <line class="cls-3" x1="352.91" y1="43.3" x2="206.7" y2="225.25"/>
      <line class="cls-3" x1="409.46" y1="58.24" x2="269.08" y2="238.99"/>
      <line class="cls-3" x1="451.61" y1="74.25" x2="318.06" y2="250.84"/>
    </g>
  </g>
  <polygon class="cls-10" points="364.92 101.12 364.92 106.71 308.34 180.16 128.99 146.12 128.99 142.67 364.92 101.12"/>
  <polygon class="cls-4" points="188.57 81.45 364.92 101.12 306.58 176.35 128.99 142.67 188.57 81.45"/>
  <g class="cls-8">
    <polygon class="cls-10" points="385.98 266.34 56.23 195.9 57.29 188.43 395.58 259.93 385.98 266.34"/>
    <polyline class="cls-12" points="316.05 247.75 88.88 200.35 88.88 244.9 268.18 244.9"/>
  </g>
  <path class="cls-5" d="M191.18,154.43l14.11,2.63,101.87-62.54-16.92-1.85c-25.77,15.77-77.6,48.29-99.05,61.77Z"/>
  <path class="cls-5" d="M227.51,161.33l101.08-64.24-8.53-.95c-21.5,13.21-76.14,47.99-100.7,63.65l8.14,1.54Z"/>
  <rect class="cls-5" x="204.08" y="330.2" width="15.04" height="62.14"/>
  <rect class="cls-5" x="229.88" y="330.2" width="15.04" height="82.15"/>
  <rect class="cls-5" x="255.69" y="330.2" width="15.04" height="94.44"/>
  <rect class="cls-5" x="281.49" y="330.2" width="15.04" height="9.57"/>
  <g>
    <path class="cls-4" d="M228.98,345.06h2.6v-6.69h-2.24v-1.81c1.3-.25,2.17-.57,3.02-1.11h2.15v9.61h2.22v2.36h-7.75v-2.36Z"/>
    <path class="cls-4" d="M238.12,345.94l1.34-1.85c.73.7,1.62,1.19,2.56,1.19,1.15,0,1.88-.47,1.88-1.34,0-1-.57-1.6-3.13-1.6v-2.05c2.09,0,2.75-.62,2.75-1.53,0-.81-.51-1.24-1.41-1.24-.83,0-1.45.36-2.19,1.02l-1.47-1.77c1.11-.96,2.34-1.54,3.79-1.54,2.54,0,4.2,1.19,4.2,3.32,0,1.21-.7,2.09-1.98,2.64v.08c1.38.4,2.36,1.36,2.36,2.9,0,2.24-2.07,3.49-4.5,3.49-1.94,0-3.32-.68-4.2-1.7Z"/>
    <path class="cls-4" d="M248.9,339.8c0-1.02.73-1.81,1.73-1.81s1.75.79,1.75,1.81-.75,1.81-1.75,1.81-1.73-.79-1.73-1.81ZM248.9,345.83c0-1.02.73-1.81,1.73-1.81s1.75.79,1.75,1.81-.75,1.81-1.75,1.81-1.73-.79-1.73-1.81Z"/>
    <path class="cls-4" d="M254.21,341.38c0-4.09,1.73-6.16,4.33-6.16s4.33,2.09,4.33,6.16-1.73,6.26-4.33,6.26-4.33-2.19-4.33-6.26ZM260.13,341.38c0-3.24-.72-3.9-1.58-3.9s-1.58.66-1.58,3.9.7,4.01,1.58,4.01,1.58-.79,1.58-4.01Z"/>
    <path class="cls-4" d="M264.24,341.38c0-4.09,1.73-6.16,4.33-6.16s4.33,2.09,4.33,6.16-1.73,6.26-4.33,6.26-4.33-2.19-4.33-6.26ZM270.15,341.38c0-3.24-.72-3.9-1.58-3.9s-1.58.66-1.58,3.9.7,4.01,1.58,4.01,1.58-.79,1.58-4.01Z"/>
  </g>
  <g>
    <path class="cls-4" d="M79.2,345.06h2.6v-6.69h-2.24v-1.81c1.3-.25,2.17-.57,3.02-1.11h2.15v9.61h2.22v2.36h-7.75v-2.36Z"/>
    <path class="cls-4" d="M88.64,345.62c2.94-2.6,5.13-4.73,5.13-6.39,0-1.13-.62-1.71-1.62-1.71-.83,0-1.49.57-2.07,1.19l-1.51-1.51c1.17-1.32,2.28-1.98,3.98-1.98,2.37,0,4.01,1.53,4.01,3.83,0,2.15-1.96,4.09-3.98,6.05.62-.06,1.45-.13,2-.13h2.56v2.45h-8.5v-1.79Z"/>
    <path class="cls-4" d="M99.11,339.8c0-1.02.73-1.81,1.73-1.81s1.75.79,1.75,1.81-.75,1.81-1.75,1.81-1.73-.79-1.73-1.81ZM99.11,345.83c0-1.02.73-1.81,1.73-1.81s1.75.79,1.75,1.81-.75,1.81-1.75,1.81-1.73-.79-1.73-1.81Z"/>
    <path class="cls-4" d="M104.42,341.38c0-4.09,1.73-6.16,4.33-6.16s4.33,2.09,4.33,6.16-1.73,6.26-4.33,6.26-4.33-2.19-4.33-6.26ZM110.34,341.38c0-3.24-.72-3.9-1.58-3.9s-1.58.66-1.58,3.9.7,4.01,1.58,4.01,1.58-.79,1.58-4.01Z"/>
    <path class="cls-4" d="M114.45,341.38c0-4.09,1.73-6.16,4.33-6.16s4.33,2.09,4.33,6.16-1.73,6.26-4.33,6.26-4.33-2.19-4.33-6.26ZM120.37,341.38c0-3.24-.72-3.9-1.58-3.9s-1.58.66-1.58,3.9.7,4.01,1.58,4.01,1.58-.79,1.58-4.01Z"/>
  </g>
  <g>
    <path class="cls-4" d="M378.09,345.06h2.6v-6.69h-2.24v-1.81c1.3-.25,2.17-.57,3.01-1.11h2.15v9.61h2.22v2.36h-7.75v-2.36Z"/>
    <path class="cls-4" d="M392.36,344.62h-5.14v-2.04l4.26-7.14h3.6v6.95h1.36v2.22h-1.36v2.79h-2.71v-2.79ZM392.36,342.4v-1.77c0-.77.06-1.94.09-2.73h-.08c-.3.7-.64,1.38-.98,2.07l-1.41,2.43h2.37Z"/>
    <path class="cls-4" d="M398.01,339.8c0-1.02.74-1.81,1.73-1.81s1.75.79,1.75,1.81-.75,1.81-1.75,1.81-1.73-.79-1.73-1.81ZM398.01,345.83c0-1.02.74-1.81,1.73-1.81s1.75.79,1.75,1.81-.75,1.81-1.75,1.81-1.73-.79-1.73-1.81Z"/>
    <path class="cls-4" d="M403.32,341.38c0-4.09,1.73-6.16,4.33-6.16s4.33,2.09,4.33,6.16-1.73,6.26-4.33,6.26-4.33-2.19-4.33-6.26ZM409.24,341.38c0-3.24-.72-3.9-1.58-3.9s-1.58.66-1.58,3.9.7,4.01,1.58,4.01,1.58-.79,1.58-4.01Z"/>
    <path class="cls-4" d="M413.35,341.38c0-4.09,1.73-6.16,4.33-6.16s4.33,2.09,4.33,6.16-1.73,6.26-4.33,6.26-4.33-2.19-4.33-6.26ZM419.26,341.38c0-3.24-.72-3.9-1.58-3.9s-1.58.66-1.58,3.9.7,4.01,1.58,4.01,1.58-.79,1.58-4.01Z"/>
  </g>
  <rect class="cls-11" x="307.3" y="297.83" width="15.04" height="15.91"/>
  <rect class="cls-11" x="333.1" y="271.28" width="15.04" height="42.46"/>
  <rect class="cls-11" x="358.91" y="230.03" width="15.04" height="83.71"/>
  <rect class="cls-11" x="384.71" y="261.14" width="15.04" height="52.61"/>
  <rect class="cls-11" x="100.85" y="252.98" width="15.04" height="60.77"/>
  <rect class="cls-11" x="126.66" y="255.37" width="15.04" height="58.38"/>
  <rect class="cls-11" x="152.46" y="270.26" width="15.04" height="43.49"/>
  <rect class="cls-11" x="178.27" y="283.36" width="15.04" height="30.38"/>
  <polyline class="cls-2" points="399.75 326.76 399.75 321.06 100.85 321.06 100.85 326.76"/>
  <line class="cls-2" x1="250.64" y1="321.06" x2="250.64" y2="326.76"/>
  <g>
    <line class="cls-3" x1="159.74" y1="109.31" x2="341.28" y2="135.18"/>
    <line class="cls-3" x1="327.84" y1="96.14" x2="266.21" y2="168.69"/>
    <line class="cls-3" x1="290.34" y1="92.67" x2="230.18" y2="162.2"/>
    <line class="cls-3" x1="255.02" y1="88.46" x2="196.03" y2="156.6"/>
    <line class="cls-3" x1="218.46" y1="84.6" x2="161.87" y2="149.82"/>
  </g>
  <g>
    <rect class="cls-6" x="206.53" y="159.7" width="87.56" height="34.39" rx="16.07" ry="16.07" transform="translate(500.61 353.79) rotate(-180)"/>
    <g>
      <path class="cls-4" d="M210.03,209.44c0-3.99,2.26-6.25,5.56-6.25s5.56,2.28,5.56,6.25-2.26,6.35-5.56,6.35-5.56-2.37-5.56-6.35ZM218.18,209.44c0-2.37-.99-3.75-2.59-3.75s-2.59,1.38-2.59,3.75,1.01,3.85,2.59,3.85,2.59-1.49,2.59-3.85Z"/>
      <path class="cls-4" d="M223.41,203.41h7.76v2.43h-4.85v2.65h4.14v2.43h-4.14v4.65h-2.91v-12.15Z"/>
      <path class="cls-4" d="M233.26,203.41h7.76v2.43h-4.85v2.65h4.14v2.43h-4.14v4.65h-2.91v-12.15Z"/>
    </g>
    <circle class="cls-4" cx="225.73" cy="176.89" r="12.87"/>
  </g>
</svg>