<?xml version="1.0" encoding="UTF-8"?>
<svg id="Laag_1" data-name="Laag 1" xmlns="http://www.w3.org/2000/svg" xmlns:xlink="http://www.w3.org/1999/xlink" viewBox="0 0 500 500">
  <defs>
    <style>
      .cls-1, .cls-2, .cls-3, .cls-4 {
        fill: none;
      }

      .cls-5 {
        clip-path: url(#clippath-1);
      }

      .cls-2 {
        stroke: #fed375;
      }

      .cls-2, .cls-3, .cls-6, .cls-4, .cls-7 {
        stroke-linecap: round;
        stroke-linejoin: round;
      }

      .cls-2, .cls-4 {
        stroke-width: 7px;
      }

      .cls-3 {
        stroke-width: 2.36px;
      }

      .cls-3, .cls-6 {
        stroke: #181e34;
      }

      .cls-6 {
        fill: #181e34;
      }

      .cls-6, .cls-7 {
        stroke-width: 2.4px;
      }

      .cls-4, .cls-7 {
        stroke: #1ebcb2;
      }

      .cls-7 {
        fill: #1ebcb2;
      }
    </style>
    <clipPath id="clippath-1">
      <rect class="cls-1" x="-129.67" y="-351.11" width="497.6" height="239.46"/>
    </clipPath>
  </defs>
  <g class="cls-5">
    <rect class="cls-6" x="116.09" y="-197.75" width="48.45" height="200.8"/>
    <rect class="cls-6" x="39.92" y="-225.68" width="48.45" height="228.73"/>
    <rect class="cls-6" x="192.27" y="-139.72" width="48.45" height="176.16"/>
    <rect class="cls-7" x="268.44" y="-87.86" width="48.45" height="176.16"/>
  </g>
  <g>
    <g>
      <line class="cls-3" x1="419.12" y1="424.28" x2="57.89" y2="424.28"/>
      <g>
        <path class="cls-3" d="M69.31,67.97c-1.86-1.87-4.43-3.02-7.28-3.02-5.67,0-10.27,4.6-10.27,10.27s4.6,10.27,10.27,10.27c2.84,0,5.42-1.15,7.28-3.02"/>
        <g>
          <line class="cls-3" x1="61.71" y1="71.95" x2="48.11" y2="71.95"/>
          <line class="cls-3" x1="61.71" y1="78.5" x2="48.11" y2="78.5"/>
        </g>
      </g>
      <line class="cls-3" x1="57.89" y1="135.94" x2="67.15" y2="135.94"/>
      <line class="cls-3" x1="57.89" y1="301.87" x2="67.15" y2="301.87"/>
      <line class="cls-3" x1="57.89" y1="343.36" x2="67.15" y2="343.36"/>
      <line class="cls-3" x1="57.89" y1="384.84" x2="67.15" y2="384.84"/>
      <line class="cls-3" x1="57.89" y1="218.91" x2="67.15" y2="218.91"/>
      <line class="cls-3" x1="57.89" y1="260.39" x2="67.15" y2="260.39"/>
      <line class="cls-3" x1="57.89" y1="177.42" x2="67.15" y2="177.42"/>
      <line class="cls-3" x1="96.38" y1="424.28" x2="96.38" y2="415.03"/>
      <line class="cls-3" x1="285.88" y1="424.28" x2="285.88" y2="415.03"/>
      <line class="cls-3" x1="333.25" y1="424.28" x2="333.25" y2="415.03"/>
      <line class="cls-3" x1="380.63" y1="424.28" x2="380.63" y2="415.03"/>
      <line class="cls-3" x1="191.13" y1="424.28" x2="191.13" y2="415.03"/>
      <line class="cls-3" x1="238.5" y1="424.28" x2="238.5" y2="415.03"/>
      <line class="cls-3" x1="143.76" y1="424.28" x2="143.76" y2="415.03"/>
      <circle class="cls-3" cx="441.12" cy="424.28" r="10.77"/>
      <polyline class="cls-3" points="441.12 418.88 441.12 424.28 443.87 427.03"/>
      <path class="cls-4" d="M76.82,155.16l14.47,84.97h0l19.36-5.25,12.88-42.9c.64.47,8.41,32.95,11.7,46.81.94,3.97,3.15,7.51,6.3,10.07,7.79,6.34,22.87,18.68,29.46,24.06,2.11,1.73,4.57,2.95,7.21,3.6l15.86,3.87c3.24.79,6.21,2.47,8.58,4.84l16.92,16.97c2.33,2.34,5.45,3.69,8.72,3.8l27.87.93c2.99.1,5.93-.85,8.31-2.69l13.74-10.59c3.49-2.69,7.83-4.02,12.21-3.75l28.77,1.8c1.91.12,3.83-.06,5.68-.55l40-10.39c3.13-.81,6.42-.8,9.55.05l44.7,12.13"/>
      <line class="cls-3" x1="57.89" y1="424.28" x2="57.89" y2="96.5"/>
    </g>
    <line class="cls-2" x1="76.82" y1="260.39" x2="419.12" y2="260.39"/>
  </g>
</svg>