<svg width="24" height="24" viewBox="0 0 24 24" fill="none" xmlns="http://www.w3.org/2000/svg">
<path d="M10.3521 6.66577C11.2194 6.27785 12.181 6.14887 13.1199 6.29517C14.0586 6.44149 14.9349 6.85641 15.6431 7.48975C16.106 7.90396 16.1458 8.61532 15.7317 9.07837C15.3434 9.51233 14.6936 9.57463 14.2324 9.2395L14.1431 9.16699L13.9944 9.04395C13.6389 8.76948 13.2192 8.58832 12.7734 8.5188C12.2639 8.43939 11.742 8.50897 11.2712 8.71948C10.8678 8.89992 10.5168 9.17722 10.248 9.52515H12.1274C12.7488 9.52515 13.2524 10.0288 13.2524 10.6501C13.2523 11.2714 12.7487 11.7751 12.1274 11.7751H9.68994V12.5251H11.2837C11.905 12.5251 12.4087 13.0288 12.4087 13.6501C12.4086 14.2714 11.905 14.7751 11.2837 14.7751H10.5154C10.7356 14.9859 10.9903 15.16 11.2712 15.2856C11.742 15.4961 12.264 15.5657 12.7734 15.4863C13.2829 15.4069 13.7587 15.1818 14.1431 14.8381C14.6062 14.4239 15.3175 14.4637 15.7317 14.9268C16.1455 15.3898 16.1059 16.1005 15.6431 16.5146C14.9349 17.148 14.0586 17.5637 13.1199 17.71C12.1811 17.8562 11.2194 17.7272 10.3521 17.3394C9.48495 16.9515 8.74842 16.3207 8.23169 15.5237C8.07717 15.2853 7.94512 15.0343 7.83472 14.7751H7.06494C6.44368 14.7751 5.94004 14.2714 5.93994 13.6501C5.93994 13.0288 6.44362 12.5251 7.06494 12.5251H7.43994V11.7751H7.06494C6.44368 11.7751 5.94004 11.2714 5.93994 10.6501C5.93994 10.0288 6.44362 9.52515 7.06494 9.52515H7.71973C7.84815 9.1601 8.01911 8.80946 8.23169 8.48145C8.74839 7.68427 9.4849 7.05372 10.3521 6.66577Z" fill="#181E34"/>
<path fill-rule="evenodd" clip-rule="evenodd" d="M12 1.875C17.5919 1.875 22.125 6.40812 22.125 12C22.125 17.5919 17.5919 22.125 12 22.125C6.40812 22.125 1.875 17.5919 1.875 12C1.875 6.40812 6.40812 1.875 12 1.875ZM12 4.125C7.65076 4.125 4.125 7.65076 4.125 12C4.125 16.3492 7.65076 19.875 12 19.875C16.3492 19.875 19.875 16.3492 19.875 12C19.875 7.65076 16.3492 4.125 12 4.125Z" fill="#181E34"/>
</svg>
