<?xml version="1.0" encoding="utf-8"?>
<!-- Generator: Adobe Illustrator 16.0.0, SVG Export Plug-In . SVG Version: 6.00 Build 0)  -->
<!DOCTYPE svg PUBLIC "-//W3C//DTD SVG 1.1//EN" "http://www.w3.org/Graphics/SVG/1.1/DTD/svg11.dtd">
<svg version="1.1" id="Layer_1" xmlns="http://www.w3.org/2000/svg" xmlns:xlink="http://www.w3.org/1999/xlink" x="0px" y="0px"
	 width="1728px" height="452px" viewBox="0 0 1728 452" enable-background="new 0 0 1728 452" xml:space="preserve">
<g>
	<path fill="#2898E9" d="M157.222,292.82c-33.943-0.055-67.886-0.135-101.83-0.148C37.262,292.666,19.13,292.773,1,292.83
		c0-0.666,0-1.332,0-1.998c1.809-1.17,2.207-3.244,3.063-4.979c15.816-32.017,31.575-64.06,47.363-96.088
		c25.118-50.955,50.317-101.87,75.326-152.879C132.588,24.983,139.06,13.375,143.917,1c5.997,0,11.993,0,17.99,0
		c4.35,1.879,9.04,1.398,13.553,1.646c42.354,2.317,84.72,4.397,127.079,6.628c36.873,1.942,73.739,3.999,110.607,5.991
		c37.368,2.019,74.739,3.98,112.105,6.04c45.171,2.488,90.337,5.075,135.51,7.525c2.574,0.14,3.564,0.884,4.269,3.483
		c5.727,21.158,11.673,42.256,17.577,63.366c0.307,1.1,0.828,2.14,1.251,3.208c-0.239,0.046-0.473,0.029-0.702-0.051
		C531.928,98.843,380.7,98.85,229.472,98.859c-3.33,0-6.667,0.16-9.989-0.008c-2.417-0.122-3.709,0.822-4.372,3.08
		c-5.482,18.687-10.836,37.414-16.552,56.03c-5.465,17.798-10.872,35.609-16.13,53.47c-6.762,22.965-14.277,45.708-21.078,68.661
		c-1.195,4.033-3.718,7.926-2.874,12.483C158.059,292.656,157.64,292.738,157.222,292.82z"/>
	<path fill="#E8EA34" d="M157.222,292.82c0.418-0.082,0.836-0.164,1.25-0.245c2.491,0.036,4.987,0.103,7.482,0.103
		c188.36,0.004,376.719,0.002,565.079-0.005c6.256,0,6.14,0.015,4.433-5.948c-3.647-12.754-7.199-25.537-10.726-38.324
		c-5.779-20.952-11.498-41.922-17.26-62.88c-4.972-18.081-9.924-36.166-14.972-54.225c-3.032-10.844-6.229-21.641-9.354-32.459
		c0.229,0.08,0.463,0.097,0.702,0.051c26.141,0.005,52.28,0.053,78.421-0.05c2.666-0.01,3.972,0.651,5.141,3.206
		c4.084,8.926,8.572,17.668,12.839,26.513c0.33,0.684,0.137,1.621,0.188,2.44c-5.323,0.083-10.65,0.311-15.97,0.189
		c-2.932-0.067-4.098,0.717-4.091,3.885c0.086,42.142,0.081,84.283,0.002,126.425c-0.005,2.864,0.93,3.731,3.721,3.668
		c6.991-0.16,14.002-0.315,20.98,0.03c4.42,0.22,5.918-0.851,5.835-5.639c-0.444-25.811-0.508-51.625-0.649-77.438
		c-0.01-1.635-0.511-3.478,0.856-5.173c0.515,0.686,0.878,1.034,1.081,1.458c11.97,25.12,24.271,50.092,35.68,75.464
		c3.53,7.851,7.099,13.34,16.577,11.63c3.214,9.92,8.078,19.14,12.37,28.587c8.299,18.265,17.021,36.336,25.539,54.499
		c9.209,19.637,18.398,39.282,27.564,58.938c0.822,1.766,0.771,3.951,2.578,5.23c0.209,3.229,1.568,5.907,3.905,8.113
		c3.194,9.673,8.146,18.559,12.541,27.686c0.579,1.202,1.707,2.264,0.982,3.484c-0.634,1.066-2.152,0.671-3.249,0.539
		c-8.227-0.989-16.479-1.831-24.647-3.177c-6.386-1.052-12.86-1.193-19.264-1.994c-8.521-1.066-17.146-1.94-25.733-2.772
		c-15.669-1.519-31.274-3.671-46.919-5.457c-6.43-0.735-12.897-1.402-19.312-1.94c-8.925-0.75-17.856-1.837-26.689-2.935
		c-14.615-1.817-29.349-2.615-43.896-5.093c-5.859-0.999-11.874-1.618-17.782-2.037c-21.855-1.548-43.487-5.03-65.318-6.832
		c-20.609-1.702-41.059-5.312-61.658-7.215c-8.916-0.822-17.789-2.093-26.745-2.726c-14.013-0.989-27.942-3.224-41.886-5.09
		c-6.729-0.9-13.505-1.185-20.257-2.081c-21.023-2.793-42.209-4.354-63.298-6.7c-20.58-2.289-41.075-5.45-61.691-7.288
		c-15.045-1.342-30.042-3.138-45.036-4.799c-14.82-1.642-29.693-2.971-44.477-5.128c-7.172-1.046-14.478-1.694-21.733-2.431
		c-16.671-1.691-33.348-3.312-49.945-5.673c-6.065-0.862-12.23-1.396-18.282-1.877c-8.93-0.712-17.707-2.718-26.715-2.771
		c-5.435-0.03-10.723-2.02-16.274-1.896c-3.374,0.074-2.425-2.796-1.926-4.431c4.252-13.915,9.102-27.664,12.899-41.699
		C152.437,309.948,156.193,301.752,157.222,292.82z"/>
	<path fill="#03795C" d="M844.469,265.495c-9.479,1.71-13.047-3.779-16.577-11.63c-11.407-25.372-23.71-50.344-35.68-75.464
		c-0.203-0.424-0.565-0.773-1.081-1.458c-1.367,1.695-0.866,3.539-0.857,5.173c0.143,25.813,0.205,51.628,0.65,77.438
		c0.083,4.788-1.415,5.857-5.835,5.639c-6.979-0.348-13.989-0.19-20.981-0.03c-2.791,0.063-3.725-0.804-3.72-3.668
		c0.079-42.142,0.084-84.283-0.002-126.425c-0.006-3.168,1.159-3.952,4.091-3.885c5.318,0.122,10.646-0.107,15.97-0.189
		c5.979,0.123,11.969,0.472,17.938,0.28c3.381-0.109,4.942,1.114,6.328,4.143c12.153,26.581,24.484,53.08,36.801,79.585
		c0.73,1.572,1.062,3.431,2.846,4.771c1.158-2.551,0.318-4.995,0.317-7.345c-0.019-25.472-0.028-50.945-0.266-76.416
		c-0.035-3.706,0.839-4.912,4.656-4.738c6.979,0.319,13.991,0.311,20.971,0.001c3.918-0.174,5.036,0.956,5.013,4.958
		c-0.173,29.802-0.091,59.605-0.087,89.408c0.001,11.655-0.135,23.312,0.095,34.962c0.07,3.633-0.739,4.918-4.636,4.799
		C861.78,265.139,853.121,265.43,844.469,265.495z"/>
	<path fill="#03795C" d="M1079.962,177.056c0.847-1.51,0.372-3.177,0.376-4.751c0.049-15.324,0.141-30.648-0.045-45.97
		c-0.045-3.705,0.634-5.281,4.807-5.082c7.646,0.365,15.326,0.296,22.979,0.021c3.686-0.132,4.802,0.844,4.79,4.684
		c-0.14,43.638-0.069,87.277-0.09,130.916c-0.004,8.349-0.074,8.362-8.274,8.417c-5.995,0.039-11.995-0.076-17.986,0.09
		c-2.765,0.076-3.923-0.763-3.764-3.669c0.204-3.729,0.05-7.479-0.391-11.423c-5.702,8.794-13.453,14.395-23.455,16.516
		c-17.723,3.76-34.086-3.412-42.48-19.582c-11.062-21.309-11.66-43.198-0.022-64.508c12.842-23.517,43.559-26.861,61.696-7.17
		C1078.623,176.111,1078.833,177.042,1079.962,177.056z M1080.395,215.396c0.059-5.575-1.123-10.843-3.813-15.766
		c-3.381-6.182-8.492-9.778-15.586-9.822c-7.101-0.044-12.535,3.409-15.648,9.673c-5.561,11.191-5.225,22.583,1.072,33.303
		c6.095,10.375,19.59,11.159,27.402,1.965C1078.525,229.211,1080.541,222.647,1080.395,215.396z"/>
	<path fill="#03795C" d="M1698.208,250.404c-13.964,22.947-51.175,24.39-65.752-2.057c-11.872-21.539-12.579-44.028-0.528-65.797
		c13.116-23.694,43.854-26.616,61.995-6.479c0.325,0.362,0.517,0.845,1.958,0.99c0-1.84,0-3.68,0-5.52
		c-0.004-15.32,0.066-30.64-0.074-45.958c-0.028-3.134,0.662-4.399,4.1-4.294c8.15,0.249,16.316,0.182,24.475,0.024
		c2.792-0.054,3.688,0.748,3.682,3.63c-0.084,45.626-0.088,91.252,0.006,136.878c0.006,2.97-1.014,3.611-3.721,3.555
		c-7.49-0.159-14.987-0.161-22.479-0.031c-2.734,0.047-3.906-0.693-3.718-3.639C1698.391,257.953,1698.208,254.173,1698.208,250.404
		z M1657.023,216.063c-0.145,2.092,0.392,5.589,1.328,8.917c2.123,7.542,6.008,13.866,14.313,15.677
		c7.218,1.573,13.021-1.282,17.455-6.979c7.698-9.888,7.712-26.95,0.104-36.871c-7.086-9.239-20.152-9.434-27.494-0.351
		C1658.46,201.744,1657.152,208.007,1657.023,216.063z"/>
	<path fill="#05795D" d="M1535.312,181.046c1.298,0.334,1.587-0.326,1.893-0.879c8.964-16.235,30.017-20.557,45.993-14.721
		c12.692,4.636,18.571,14.916,20.885,27.645c0.928,5.108,0.782,10.271,0.776,15.427c-0.015,17.477-0.106,34.957,0.063,52.43
		c0.035,3.534-1.006,4.565-4.487,4.454c-7.647-0.247-15.318-0.299-22.964-0.002c-3.896,0.149-5.137-0.916-5.068-4.941
		c0.24-14.479,0.124-28.961,0.079-43.442c-0.013-4.151-0.099-8.302-1.178-12.376c-2.171-8.201-5.775-11.943-12.26-12.532
		c-7.342-0.667-13.75,2.925-17.073,9.698c-3.077,6.272-3.801,13.044-3.835,19.9c-0.064,12.982-0.146,25.968,0.066,38.947
		c0.059,3.584-0.646,4.957-4.575,4.781c-7.809-0.351-15.645-0.23-23.464-0.072c-3.062,0.063-4.316-0.521-4.297-4.055
		c0.162-30.627,0.158-61.253,0.027-91.879c-0.016-3.382,1.032-4.249,4.229-4.155c6.984,0.204,13.982,0.194,20.968,0.003
		c3.149-0.086,4.55,0.692,4.289,4.14C1535.085,173.315,1535.312,177.253,1535.312,181.046z"/>
	<path fill="#05795D" d="M1453.195,250.738c-2.801,3.354-4.877,6.349-7.445,8.832c-10.929,10.572-31.758,11.1-45.346,1.312
		c-11.071-7.974-14.853-25.576-8.369-39.338c4.39-9.318,12.418-13.971,21.876-16.657c10.887-3.091,21.975-3.385,33.156-2.236
		c5.253,0.539,5.516,0.246,3.997-4.861c-1.993-6.701-6.937-9.902-13.506-10.894c-10.866-1.639-20.682,0.117-37.146,6.741
		c0-7.697,0.016-14.873-0.012-22.048c-0.008-1.552,1.173-1.934,2.214-2.307c17.938-6.422,36.243-9.024,54.737-3.098
		c15.736,5.043,24.489,18.494,24.606,36.103c0.104,15.313,0.053,30.628,0.243,45.94c0.058,4.643,0.555,9.295,1.115,13.91
		c0.293,2.411-0.27,3.276-2.799,3.236c-7.821-0.122-15.649-0.136-23.471,0.01c-2.578,0.049-2.979-1.146-3.048-3.287
		C1453.885,258.529,1453.511,254.968,1453.195,250.738z M1441.474,220.677c-7.309-0.223-12.418,0.571-16.021,2.557
		c-4.527,2.495-6.702,6.343-6.187,11.497c0.516,5.119,3.771,7.871,8.506,9.136c9.354,2.499,18.675-3.101,22.396-13.438
		c3.148-8.745,2.849-9.205-6.209-9.589C1443.129,220.804,1442.303,220.728,1441.474,220.677z"/>
	<path fill="#05795D" d="M1219.067,237.641c0,7.197-0.044,14.309,0.029,21.416c0.02,1.803-0.741,2.789-2.35,3.31
		c-20.887,6.755-41.839,9.104-61.827-2.236c-18.476-10.481-24.839-27.84-24.007-48.147c0.651-15.927,5.962-29.881,19.356-39.789
		c18.963-14.028,49.704-11.909,64.463,4.832c9.234,10.477,12.152,23.424,12.71,36.98c0.479,11.651,0.348,11.649-11.06,11.644
		c-16.144-0.007-32.289,0.125-48.43-0.091c-4.082-0.055-4.493,1.55-3.398,4.679c2.241,6.408,6.627,10.697,13.154,12.522
		c12.018,3.361,23.672,1.819,35.063-2.889C1214.72,239.066,1216.454,237.611,1219.067,237.641z M1180.499,205.858
		c2.825,0,5.659,0.124,8.476-0.033c3.103-0.173,7.748,1.501,8.961-0.743c1.834-3.396-0.388-7.689-1.959-11.376
		c-0.32-0.753-0.841-1.434-1.334-2.097c-4.493-6.023-12.872-8.172-20.182-5.193c-6.005,2.447-11.645,11.553-11.146,17.588
		c0.177,2.129,1.458,1.835,2.723,1.842C1170.858,205.872,1175.679,205.856,1180.499,205.858z"/>
	<path fill="#05795D" d="M984.257,236.907c0,7.762-0.005,14.75,0.004,21.737c0.002,1.555-0.089,2.896-1.977,3.514
		c-22.628,7.402-45.149,9.826-66.026-4.473c-16.795-11.5-21.502-28.811-20.024-48.235c2.72-35.821,35.979-56.306,69.193-42.673
		c14.226,5.838,21.261,17.429,24.927,31.583c1.974,7.622,2.244,15.43,2.33,23.28c0.037,3.479-1.236,4.1-4.328,4.08
		c-18.312-0.121-36.625,0.047-54.937-0.162c-4.19-0.048-5.171,0.934-3.692,4.92c3.165,8.535,9.74,12.17,18.187,13.461
		C960.549,245.87,972.301,242.96,984.257,236.907z M946.204,205.852c4.815,0,9.631-0.021,14.446,0.012
		c1.631,0.011,2.688-0.104,2.838-2.306c0.521-7.715-5.014-15.781-12.463-17.737c-11.603-3.047-22.018,5.044-22.573,17.371
		c-0.107,2.38,0.801,2.744,2.808,2.706C936.239,205.802,941.223,205.866,946.204,205.852z"/>
	<path fill="#03795C" d="M1334.218,193.147c-0.002-22.457,0.067-44.915-0.075-67.371c-0.021-3.416,0.822-4.62,4.394-4.499
		c7.643,0.259,15.308,0.258,22.95-0.017c3.835-0.138,5,0.902,4.98,4.925c-0.171,37.595-0.104,75.19-0.104,112.786
		c0,7.651-0.081,15.305,0.07,22.954c0.053,2.589-0.67,3.429-3.358,3.371c-8.312-0.175-16.638-0.241-24.945,0.044
		c-3.556,0.121-3.975-1.345-3.962-4.324C1334.264,238.395,1334.22,215.771,1334.218,193.147z"/>
	<path fill="#05795D" d="M1277.291,181.399c1.749-0.452,1.873-1.571,2.333-2.374c7.627-13.29,17.955-17.989,33.073-15.341
		c2.652,0.464,3.245,1.506,3.065,3.911c-0.543,7.299-1.047,14.604-1.339,21.916c-0.109,2.757-0.729,3.66-3.744,3.119
		c-6.479-1.163-13.021-1.205-18.854,2.482c-8.275,5.231-11.099,13.638-11.438,22.679c-0.529,14.139-0.448,28.311-0.193,42.46
		c0.078,4.343-1.289,5.312-5.315,5.156c-7.649-0.294-15.321-0.179-22.979-0.021c-2.827,0.057-4.151-0.428-4.139-3.748
		c0.12-30.813,0.11-61.626,0.009-92.439c-0.011-3.118,0.999-3.998,4.012-3.918c7.157,0.189,14.328,0.241,21.481-0.01
		c3.436-0.121,4.285,1.157,4.087,4.316C1277.107,173.401,1277.291,177.241,1277.291,181.399z"/>
	<path fill="#03795C" d="M683.155,98.835c3.124,10.818,6.321,21.615,9.354,32.459c5.048,18.059,10,36.145,14.972,54.225
		c5.763,20.958,11.48,41.928,17.26,62.881c3.527,12.787,7.078,25.57,10.726,38.322c1.707,5.965,1.823,5.949-4.433,5.949
		c-188.36,0.006-376.719,0.008-565.079,0.006c-2.496,0-4.991-0.066-7.482-0.104c-0.84-4.559,1.683-8.45,2.878-12.483
		c6.801-22.952,14.316-45.696,21.078-68.661c5.259-17.861,10.666-35.672,16.13-53.47c5.716-18.616,11.07-37.343,16.552-56.03
		c0.663-2.258,1.956-3.202,4.372-3.08c3.321,0.167,6.659,0.008,9.989,0.008C380.7,98.849,531.927,98.842,683.155,98.835z
		 M519.88,196.891c0.292,4.478,0.482,8.966,0.896,13.434c2.35,25.405,17.338,45.149,40.072,52.101
		c18.264,5.586,36.779,5.7,55.094,0.264c19.423-5.766,32.475-18.553,38.411-37.919c5.334-17.403,5.459-35.092,0.411-52.653
		c-5.761-20.045-18.605-33.282-38.538-39.676c-12.929-4.147-26.166-4.913-39.474-3.298c-21.498,2.61-39.092,11.721-49.167,31.978
		C522.004,172.344,520.098,184.455,519.88,196.891z M427.913,130.757c-20.637,0-41.274,0.06-61.911-0.065
		c-3.091-0.019-4.352,0.522-4.27,4.008c0.245,10.479,0.228,20.97,0.005,31.45c-0.069,3.25,1.09,3.842,3.996,3.802
		c10.982-0.15,21.974,0.135,32.949-0.184c4.146-0.121,5.225,0.989,5.196,5.148c-0.19,28.125-0.012,56.251-0.192,84.376
		c-0.026,4.015,1.166,4.94,5,4.867c12.478-0.236,24.967-0.278,37.441,0.024c4.295,0.104,5.166-1.273,5.143-5.316
		c-0.162-28.293-0.01-56.585-0.13-84.877c-0.014-3.309,0.892-4.248,4.178-4.192c11.313,0.189,22.634-0.028,33.948,0.142
		c3.031,0.045,3.995-0.754,3.939-3.878c-0.186-10.315-0.188-20.638,0.035-30.952c0.075-3.456-0.873-4.47-4.415-4.439
		C468.521,130.846,448.217,130.756,427.913,130.757z M248.422,197.424c0,20.804,0.059,41.608-0.063,62.412
		c-0.018,3.139,0.684,4.348,4.093,4.334c32.621-0.123,65.242-0.141,97.863-0.014c3.596,0.015,4.465-1.168,4.4-4.549
		c-0.193-10.148-0.237-20.309,0.009-30.453c0.087-3.58-1.039-4.396-4.462-4.361c-16.476,0.174-32.956-0.081-49.429,0.188
		c-4.21,0.068-5.156-1.079-5.126-5.193c0.198-28.126,0.044-56.254,0.185-84.381c0.018-3.558-0.638-4.849-4.565-4.758
		c-12.476,0.288-24.967,0.29-37.443-0.006c-4.255-0.101-5.66,0.758-5.595,5.368C248.575,156.479,248.412,176.952,248.422,197.424z"
		/>
	<path fill="#FBFDFD" d="M519.88,196.891c0.218-12.436,2.125-24.546,7.707-35.771c10.075-20.257,27.669-29.368,49.167-31.978
		c13.307-1.615,26.544-0.849,39.473,3.298c19.934,6.394,32.778,19.631,38.539,39.676c5.047,17.561,4.924,35.25-0.412,52.653
		c-5.937,19.368-18.987,32.155-38.41,37.92c-18.314,5.437-36.83,5.32-55.094-0.265c-22.734-6.952-37.723-26.694-40.072-52.101
		C520.362,205.857,520.172,201.369,519.88,196.891z M569.633,197.432c-0.006,7.839,0.512,15.608,2.874,23.162
		c2.786,8.912,8.311,13.801,16.032,14.102c8.07,0.312,14.578-4.094,17.107-13.22c4.487-16.182,4.557-32.579-0.787-48.625
		c-2.961-8.89-8.61-12.617-16.631-12.332c-7.424,0.264-12.735,4.796-15.511,13.277C570.205,181.477,569.595,189.411,569.633,197.432
		z"/>
	<path fill="#FDFEFD" d="M427.913,130.757c20.304,0,40.608,0.089,60.911-0.086c3.542-0.031,4.488,0.983,4.415,4.439
		c-0.224,10.314-0.22,20.637-0.035,30.952c0.056,3.124-0.908,3.924-3.939,3.878c-11.313-0.169-22.635,0.048-33.948-0.142
		c-3.286-0.055-4.191,0.883-4.178,4.192c0.12,28.292-0.032,56.584,0.131,84.877c0.022,4.043-0.849,5.422-5.144,5.316
		c-12.475-0.304-24.964-0.262-37.442-0.024c-3.833,0.073-5.024-0.854-5-4.867c0.182-28.125,0.002-56.252,0.193-84.376
		c0.028-4.159-1.051-5.269-5.196-5.148c-10.975,0.319-21.966,0.034-32.949,0.184c-2.906,0.04-4.064-0.552-3.996-3.802
		c0.223-10.48,0.24-20.971-0.005-31.45c-0.082-3.486,1.179-4.026,4.27-4.008C386.639,130.817,407.276,130.757,427.913,130.757z"/>
	<path fill="#FDFEFD" d="M248.417,197.424c-0.005-20.472,0.158-40.945-0.129-61.413c-0.065-4.61,1.34-5.469,5.595-5.368
		c12.476,0.296,24.967,0.294,37.443,0.006c3.928-0.091,4.583,1.2,4.565,4.758c-0.141,28.127,0.013,56.255-0.185,84.381
		c-0.029,4.114,0.916,5.261,5.126,5.193c16.473-0.269,32.953-0.014,49.429-0.188c3.423-0.036,4.55,0.781,4.462,4.361
		c-0.246,10.146-0.202,20.305-0.009,30.453c0.065,3.381-0.804,4.562-4.4,4.549c-32.621-0.127-65.242-0.109-97.863,0.014
		c-3.409,0.014-4.111-1.195-4.093-4.334C248.48,239.032,248.422,218.228,248.417,197.424z"/>
	<path fill="#05795D" d="M569.637,197.429c-0.042-8.019,0.568-15.952,3.082-23.634c2.775-8.481,8.087-13.014,15.51-13.277
		c8.021-0.286,13.67,3.441,16.632,12.332c5.344,16.045,5.273,32.443,0.788,48.625c-2.531,9.126-9.039,13.533-17.108,13.22
		c-7.723-0.301-13.246-5.188-16.032-14.102C570.145,213.04,569.626,205.271,569.637,197.429z"/>
</g>
</svg>
